<?xml version="1.0" encoding="UTF-8" standalone="no"?>
<!DOCTYPE svg PUBLIC "-//W3C//DTD SVG 1.1//EN" "http://www.w3.org/Graphics/SVG/1.1/DTD/svg11.dtd">
<svg id="github" xmlns="http://www.w3.org/2000/svg" xmlns:xlink="http://www.w3.org/1999/xlink" version="1.1" width="36.76239pt" height="38.283205pt" viewBox="0 0 36.76239 38.283205">
<g enable-background="new">
<clipPath id="cp0">
<path transform="matrix(1,0,0,-1,-134.1627,447.831)" d="M .06 0 L 530.973 0 L 530.973 499.988 L .06 499.988 Z "/>
</clipPath>
<g clip-path="url(#cp0)">
<path transform="matrix(1,0,0,-1,-134.1627,447.831)" d="M .06 0 L 530.973 0 L 530.973 275.986 L .06 275.986 Z " fill="#231f20"/>
</g>
<clipPath id="cp1">
<path transform="matrix(1,0,0,-1,-134.1627,447.831)" d="M 0 0 L 531 0 L 531 500 L 0 500 Z "/>
</clipPath>
<g clip-path="url(#cp1)" fill="var(--github_color)">
<path transform="matrix(1,0,0,-1,-134.1627,447.831)" d="M 152.608 444.545 C 143.614 444.545 136.32 437.252 136.32 428.255 C 136.32 421.058 140.987 414.953 147.46 412.799 C 148.275 412.649 148.572 413.152 148.572 413.584 C 148.572 413.97 148.558 414.995 148.55 416.354 C 144.019 415.37 143.063 418.538 143.063 418.538 C 142.322 420.42 141.254 420.921 141.254 420.921 C 139.775 421.931 141.366 421.911 141.366 421.911 C 143.001 421.796 143.861 420.232 143.861 420.232 C 145.314 417.743 147.674 418.462 148.602 418.879 C 148.75 419.931 149.171 420.649 149.636 421.056 C 146.019 421.467 142.216 422.865 142.216 429.107 C 142.216 430.885 142.851 432.34 143.893 433.478 C 143.725 433.89 143.166 435.547 144.053 437.789 C 144.053 437.789 145.42 438.227 148.532 436.119 C 149.831 436.481 151.225 436.661 152.61 436.668 C 153.994 436.661 155.387 436.481 156.688 436.119 C 159.798 438.227 161.163 437.789 161.163 437.789 C 162.052 435.547 161.493 433.89 161.326 433.478 C 162.37 432.34 163 430.885 163 429.107 C 163 422.849 159.191 421.472 155.563 421.069 C 156.147 420.566 156.668 419.572 156.668 418.052 C 156.668 415.875 156.648 414.118 156.648 413.584 C 156.648 413.148 156.942 412.641 157.768 412.8 C 164.236 414.959 168.899 421.06 168.899 428.255 C 168.899 437.252 161.605 444.545 152.608 444.545 " fill="#181717" fill-rule="evenodd"/>
<path transform="matrix(1,0,0,-1,-134.1627,447.831)" d="M 350.609 493.555 C 317.262 493.555 290.221 466.519 290.221 433.167 C 290.221 406.486 307.524 383.85 331.518 375.865 C 334.536 375.306 335.644 377.175 335.644 378.77 C 335.644 380.21 335.588 384.967 335.562 390.013 C 318.762 386.36 315.217 397.138 315.217 397.138 C 312.47 404.118 308.512 405.974 308.512 405.974 C 303.033 409.722 308.925 409.645 308.925 409.645 C 314.989 409.219 318.182 403.422 318.182 403.422 C 323.568 394.19 332.309 396.859 335.755 398.402 C 336.297 402.305 337.862 404.969 339.589 406.477 C 326.176 408.004 312.076 413.182 312.076 436.321 C 312.076 442.914 314.435 448.301 318.298 452.53 C 317.671 454.051 315.604 460.193 318.883 468.511 C 318.883 468.511 323.954 470.134 335.494 462.321 C 340.311 463.659 345.477 464.33 350.609 464.353 C 355.741 464.33 360.911 463.659 365.737 462.321 C 377.263 470.134 382.327 468.511 382.327 468.511 C 385.614 460.193 383.546 454.051 382.919 452.53 C 386.791 448.301 389.134 442.914 389.134 436.321 C 389.134 413.127 375.007 408.02 361.56 406.525 C 363.726 404.651 365.656 400.976 365.656 395.342 C 365.656 387.262 365.586 380.759 365.586 378.77 C 365.586 377.163 366.673 375.28 369.734 375.873 C 393.715 383.867 410.996 406.495 410.996 433.167 C 410.996 466.519 383.959 493.555 350.609 493.555 " fill="#181717" fill-rule="evenodd"/>
<path transform="matrix(1,0,0,-1,-134.1627,447.831)" d="M 313.093 406.851 C 312.96 406.551 312.488 406.461 312.058 406.667 C 311.62 406.864 311.374 407.273 311.516 407.574 C 311.646 407.883 312.119 407.969 312.556 407.762 C 312.995 407.565 313.245 407.152 313.093 406.851 " fill="#181717"/>
<path transform="matrix(1,0,0,-1,-134.1627,447.831)" d="M 315.539 404.123 C 315.251 403.856 314.688 403.98 314.306 404.402 C 313.911 404.823 313.837 405.386 314.129 405.657 C 314.426 405.924 314.972 405.799 315.368 405.378 C 315.763 404.952 315.84 404.393 315.539 404.123 " fill="#181717"/>
<path transform="matrix(1,0,0,-1,-134.1627,447.831)" d="M 317.92 400.645 C 317.55 400.388 316.945 400.629 316.571 401.166 C 316.201 401.703 316.201 402.347 316.579 402.605 C 316.954 402.863 317.55 402.631 317.929 402.098 C 318.298 401.552 318.298 400.908 317.92 400.645 " fill="#181717"/>
<path transform="matrix(1,0,0,-1,-134.1627,447.831)" d="M 321.182 397.285 C 320.851 396.92 320.146 397.018 319.63 397.516 C 319.102 398.003 318.955 398.694 319.287 399.059 C 319.622 399.425 320.331 399.322 320.851 398.828 C 321.375 398.342 321.535 397.646 321.182 397.285 " fill="#181717"/>
<path transform="matrix(1,0,0,-1,-134.1627,447.831)" d="M 325.682 395.334 C 325.536 394.861 324.857 394.646 324.173 394.847 C 323.49 395.054 323.043 395.608 323.181 396.086 C 323.323 396.562 324.005 396.786 324.694 396.571 C 325.376 396.365 325.824 395.815 325.682 395.334 " fill="#181717"/>
<path transform="matrix(1,0,0,-1,-134.1627,447.831)" d="M 330.624 394.972 C 330.641 394.474 330.061 394.061 329.343 394.052 C 328.621 394.036 328.037 394.439 328.029 394.929 C 328.029 395.432 328.596 395.841 329.318 395.853 C 330.036 395.867 330.624 395.467 330.624 394.972 " fill="#181717"/>
<path transform="matrix(1,0,0,-1,-134.1627,447.831)" d="M 335.223 395.755 C 335.309 395.269 334.81 394.77 334.097 394.637 C 333.396 394.509 332.747 394.809 332.658 395.291 C 332.571 395.789 333.079 396.288 333.779 396.417 C 334.493 396.541 335.132 396.249 335.223 395.755 " fill="#181717"/>
</g>
<clipPath id="cp2" >
<path transform="matrix(1,0,0,-1,-134.1627,447.831)" d="M .06 0 L 530.973 0 L 530.973 499.988 L .06 499.988 Z "/>
</clipPath>
<g clip-path="url(#cp2)" fill="var(--github_color)">
<path transform="matrix(1,0,0,-1,-134.1627,447.831)" stroke-width="1" stroke-linecap="round" stroke-miterlimit="10" stroke-linejoin="miter" fill="none" stroke="#1a81bd" d="M 224.898 499.488 L 224.898 498.988 "/>
<path transform="matrix(1,0,0,-1,-134.1627,447.831)" stroke-width="1" stroke-linecap="round" stroke-dasharray="1,2" stroke-miterlimit="10" stroke-linejoin="miter" fill="none" stroke="#1a81bd" d="M 224.898 496.988 L 224.898 362.995 "/>
</g>
<clipPath id="cp3">
<path transform="matrix(1,0,0,-1,-134.1627,447.831)" d="M 0 0 L 531 0 L 531 500 L 0 500 Z "/>
</clipPath>
<g clip-path="url(#cp3)" fill="var(--github_color)">
<path transform="matrix(1,0,0,-1,-134.1627,447.831)" stroke-width="1" stroke-linecap="round" stroke-miterlimit="10" stroke-linejoin="miter" fill="none" stroke="#1a81bd" d="M 224.898 361.995 L 224.898 361.495 "/>
<path transform="matrix(1,0,0,-1,-134.1627,447.831)" d="M 133.276 347.479 C 132.895 347.756 132.41 347.893 131.818 347.893 C 131.578 347.893 131.342 347.869 131.11 347.822 C 130.877 347.773 130.672 347.693 130.492 347.582 C 130.312 347.468 130.168 347.319 130.059 347.131 C 129.952 346.943 129.898 346.709 129.898 346.429 C 129.898 346.166 129.975 345.951 130.132 345.787 C 130.287 345.623 130.496 345.489 130.756 345.386 C 131.016 345.281 131.309 345.195 131.638 345.127 C 131.966 345.059 132.3 344.985 132.64 344.906 C 132.98 344.826 133.313 344.731 133.642 344.623 C 133.97 344.515 134.264 344.369 134.524 344.185 C 134.784 344.002 134.992 343.769 135.148 343.49 C 135.304 343.209 135.382 342.857 135.382 342.433 C 135.382 341.977 135.28 341.588 135.076 341.263 C 134.871 340.939 134.61 340.675 134.29 340.471 C 133.97 340.267 133.612 340.119 133.216 340.027 C 132.82 339.935 132.426 339.889 132.034 339.889 C 131.554 339.889 131.1 339.949 130.672 340.069 C 130.244 340.189 129.868 340.371 129.544 340.615 C 129.22 340.859 128.964 341.172 128.776 341.552 C 128.588 341.931 128.494 342.381 128.494 342.901 L 129.574 342.901 C 129.574 342.541 129.643 342.231 129.784 341.971 C 129.924 341.711 130.108 341.498 130.336 341.33 C 130.564 341.162 130.829 341.037 131.134 340.957 C 131.438 340.877 131.749 340.838 132.07 340.838 C 132.326 340.838 132.584 340.861 132.844 340.91 C 133.104 340.957 133.338 341.039 133.546 341.156 C 133.754 341.271 133.922 341.429 134.05 341.629 C 134.178 341.83 134.242 342.086 134.242 342.397 C 134.242 342.693 134.163 342.933 134.008 343.117 C 133.852 343.3 133.643 343.451 133.384 343.567 C 133.123 343.683 132.829 343.777 132.502 343.849 C 132.174 343.922 131.84 343.996 131.5 344.072 C 131.16 344.147 130.826 344.235 130.498 344.336 C 130.17 344.435 129.875 344.567 129.616 344.731 C 129.356 344.895 129.148 345.107 128.992 345.367 C 128.836 345.627 128.758 345.953 128.758 346.345 C 128.758 346.777 128.846 347.151 129.022 347.468 C 129.198 347.783 129.432 348.043 129.724 348.248 C 130.016 348.451 130.348 348.603 130.72 348.703 C 131.092 348.804 131.474 348.853 131.866 348.853 C 132.306 348.853 132.714 348.8 133.09 348.697 C 133.466 348.593 133.796 348.429 134.079 348.205 C 134.364 347.981 134.588 347.699 134.752 347.359 C 134.915 347.019 135.006 346.613 135.022 346.141 L 133.942 346.141 C 133.877 346.758 133.656 347.203 133.276 347.479 " fill="#0072bc"/>
<path transform="matrix(1,0,0,-1,-134.1627,447.831)" d="M 137.554 346.285 L 137.554 345.373 L 137.578 345.373 C 138.041 346.078 138.709 346.429 139.581 346.429 C 139.966 346.429 140.313 346.349 140.625 346.189 C 140.938 346.029 141.158 345.758 141.286 345.373 C 141.494 345.709 141.768 345.968 142.108 346.153 C 142.448 346.338 142.822 346.429 143.229 346.429 C 143.541 346.429 143.824 346.395 144.076 346.328 C 144.328 346.259 144.543 346.153 144.724 346.009 C 144.904 345.865 145.043 345.679 145.143 345.451 C 145.244 345.223 145.293 344.949 145.293 344.629 L 145.293 340.082 L 144.274 340.082 L 144.274 344.149 C 144.274 344.342 144.257 344.521 144.225 344.689 C 144.194 344.857 144.134 345.004 144.046 345.127 C 143.957 345.252 143.835 345.349 143.68 345.422 C 143.524 345.494 143.322 345.529 143.074 345.529 C 142.57 345.529 142.174 345.386 141.886 345.097 C 141.598 344.809 141.454 344.425 141.454 343.945 L 141.454 340.082 L 140.433 340.082 L 140.433 344.149 C 140.433 344.349 140.415 344.533 140.38 344.701 C 140.344 344.869 140.282 345.015 140.194 345.139 C 140.105 345.263 139.988 345.359 139.84 345.427 C 139.691 345.496 139.501 345.529 139.27 345.529 C 138.974 345.529 138.72 345.47 138.508 345.349 C 138.295 345.229 138.123 345.086 137.992 344.918 C 137.86 344.75 137.764 344.576 137.704 344.395 C 137.643 344.215 137.614 344.065 137.614 343.945 L 137.614 340.082 L 136.594 340.082 L 136.594 346.285 L 137.554 346.285 " fill="#0072bc"/>
<path transform="matrix(1,0,0,-1,-134.1627,447.831)" d="M 150.165 343.076 C 149.957 343.031 149.74 342.996 149.512 342.968 C 149.284 342.939 149.053 342.908 148.821 342.871 C 148.589 342.836 148.381 342.777 148.198 342.697 C 148.013 342.617 147.863 342.504 147.747 342.355 C 147.631 342.207 147.574 342.006 147.574 341.75 C 147.574 341.582 147.607 341.439 147.675 341.324 C 147.743 341.207 147.831 341.113 147.939 341.041 C 148.047 340.97 148.175 340.918 148.324 340.886 C 148.472 340.853 148.621 340.838 148.773 340.838 C 149.109 340.838 149.397 340.883 149.638 340.975 C 149.877 341.067 150.073 341.183 150.225 341.324 C 150.377 341.463 150.49 341.615 150.561 341.779 C 150.633 341.943 150.669 342.097 150.669 342.242 L 150.669 343.285 C 150.541 343.189 150.373 343.119 150.165 343.076 Z M 151.594 339.949 C 151.329 339.949 151.12 340.023 150.963 340.172 C 150.808 340.319 150.729 340.561 150.729 340.897 C 150.449 340.561 150.123 340.319 149.751 340.172 C 149.379 340.023 148.977 339.949 148.545 339.949 C 148.266 339.949 148.001 339.979 147.753 340.039 C 147.505 340.099 147.287 340.199 147.1 340.34 C 146.912 340.479 146.764 340.659 146.656 340.879 C 146.547 341.099 146.494 341.365 146.494 341.677 C 146.494 342.029 146.554 342.317 146.673 342.541 C 146.793 342.765 146.951 342.947 147.147 343.088 C 147.343 343.227 147.567 343.334 147.819 343.406 C 148.071 343.477 148.329 343.537 148.594 343.586 C 148.873 343.641 149.14 343.683 149.392 343.711 C 149.643 343.739 149.866 343.779 150.058 343.832 C 150.249 343.883 150.401 343.959 150.514 344.059 C 150.625 344.16 150.682 344.305 150.682 344.498 C 150.682 344.72 150.64 344.901 150.556 345.037 C 150.472 345.174 150.363 345.277 150.231 345.349 C 150.1 345.422 149.951 345.47 149.787 345.494 C 149.623 345.517 149.461 345.529 149.302 345.529 C 148.87 345.529 148.51 345.447 148.222 345.283 C 147.933 345.119 147.777 344.809 147.753 344.353 L 146.733 344.353 C 146.749 344.737 146.829 345.061 146.974 345.326 C 147.118 345.59 147.309 345.804 147.549 345.968 C 147.789 346.131 148.065 346.25 148.377 346.322 C 148.689 346.393 149.017 346.429 149.361 346.429 C 149.642 346.429 149.919 346.41 150.195 346.369 C 150.472 346.33 150.722 346.248 150.945 346.123 C 151.169 346 151.35 345.825 151.485 345.601 C 151.621 345.377 151.689 345.086 151.689 344.725 L 151.689 341.533 C 151.689 341.293 151.704 341.117 151.731 341.006 C 151.759 340.893 151.854 340.838 152.014 340.838 C 152.102 340.838 152.205 340.857 152.326 340.897 L 152.326 340.105 C 152.149 340.002 151.906 339.949 151.594 339.949 " fill="#0072bc"/>
<path transform="matrix(1,0,0,-1,-134.1627,447.831)" d="M 153.333 340.082 L 154.35399 340.082 L 154.35399 348.649 L 153.333 348.649 Z " fill="#0072bc"/>
<path transform="matrix(1,0,0,-1,-134.1627,447.831)" d="M 155.997 340.082 L 157.017 340.082 L 157.017 348.649 L 155.997 348.649 Z " fill="#0072bc"/>
<path transform="matrix(1,0,0,-1,-134.1627,447.831)" d="M 101.854 330.986 L 101.854 331.886 L 102.898 331.886 L 102.898 332.809 C 102.898 333.313 103.044 333.695 103.336 333.955 C 103.628 334.215 104.054 334.345 104.614 334.345 C 104.71 334.345 104.82 334.338 104.944 334.322 C 105.068 334.305 105.178 334.281 105.274 334.25 L 105.274 333.361 C 105.186 333.393 105.09 333.416 104.986 333.427 C 104.882 333.439 104.786 333.445 104.698 333.445 C 104.45 333.445 104.258 333.397 104.122 333.302 C 103.986 333.205 103.918 333.021 103.918 332.75 L 103.918 331.886 L 105.118 331.886 L 105.118 330.986 L 103.918 330.986 L 103.918 325.681 L 102.898 325.681 L 102.898 330.986 L 101.854 330.986 " fill="#0072bc"/>
<path transform="matrix(1,0,0,-1,-134.1627,447.831)" d="M 106.924 327.775 C 107.023 327.483 107.162 327.24 107.338 327.043 C 107.514 326.847 107.72 326.697 107.955 326.593 C 108.191 326.49 108.442 326.437 108.705 326.437 C 108.97 326.437 109.22 326.49 109.455 326.593 C 109.691 326.697 109.897 326.847 110.074 327.043 C 110.249 327.24 110.388 327.483 110.488 327.775 C 110.588 328.067 110.638 328.401 110.638 328.777 C 110.638 329.154 110.588 329.487 110.488 329.779 C 110.388 330.072 110.249 330.317 110.074 330.517 C 109.897 330.717 109.691 330.869 109.455 330.973 C 109.22 331.078 108.97 331.13 108.705 331.13 C 108.442 331.13 108.191 331.078 107.955 330.973 C 107.72 330.869 107.514 330.717 107.338 330.517 C 107.162 330.317 107.023 330.072 106.924 329.779 C 106.824 329.487 106.774 329.154 106.774 328.777 C 106.774 328.401 106.824 328.067 106.924 327.775 Z M 105.886 330.055 C 106.014 330.451 106.205 330.795 106.462 331.088 C 106.718 331.379 107.034 331.609 107.41 331.777 C 107.786 331.945 108.218 332.029 108.705 332.029 C 109.202 332.029 109.636 331.945 110.008 331.777 C 110.38 331.609 110.693 331.379 110.95 331.088 C 111.205 330.795 111.397 330.451 111.526 330.055 C 111.654 329.66 111.718 329.233 111.718 328.777 C 111.718 328.322 111.654 327.897 111.526 327.506 C 111.397 327.113 111.205 326.771 110.95 326.479 C 110.693 326.187 110.38 325.959 110.008 325.795 C 109.636 325.632 109.202 325.55 108.705 325.55 C 108.218 325.55 107.786 325.632 107.41 325.795 C 107.034 325.959 106.718 326.187 106.462 326.479 C 106.205 326.771 106.014 327.113 105.886 327.506 C 105.758 327.897 105.694 328.322 105.694 328.777 C 105.694 329.233 105.758 329.66 105.886 330.055 " fill="#0072bc"/>
<path transform="matrix(1,0,0,-1,-134.1627,447.831)" d="M 113.842 331.886 L 113.842 330.578 L 113.866 330.578 C 114.114 331.082 114.418 331.453 114.778 331.693 C 115.138 331.933 115.594 332.045 116.146 332.029 L 116.146 330.949 C 115.738 330.949 115.39 330.893 115.102 330.781 C 114.814 330.67 114.581 330.506 114.406 330.289 C 114.23 330.074 114.101 329.811 114.022 329.504 C 113.942 329.195 113.902 328.842 113.902 328.441 L 113.902 325.681 L 112.882 325.681 L 112.882 331.886 L 113.842 331.886 " fill="#0072bc"/>
<path transform="matrix(1,0,0,-1,-134.1627,447.831)" d="M 122.733 325.681 L 122.733 331.777 L 120.525 331.777 L 120.525 332.593 C 120.813 332.593 121.093 332.615 121.365 332.66 C 121.637 332.703 121.883 332.785 122.103 332.906 C 122.323 333.025 122.509 333.189 122.662 333.397 C 122.813 333.605 122.917 333.869 122.974 334.189 L 123.753 334.189 L 123.753 325.681 L 122.733 325.681 " fill="#0072bc"/>
<path transform="matrix(1,0,0,-1,-134.1627,447.831)" d="M 128.829 330.103 C 128.614 330.004 128.43 329.867 128.278 329.695 C 128.126 329.523 128.012 329.319 127.936 329.084 C 127.86 328.847 127.822 328.597 127.822 328.334 C 127.822 328.07 127.862 327.822 127.942 327.59 C 128.021 327.357 128.136 327.158 128.284 326.99 C 128.432 326.822 128.616 326.687 128.836 326.588 C 129.056 326.487 129.306 326.437 129.586 326.437 C 129.866 326.437 130.112 326.487 130.324 326.588 C 130.536 326.687 130.714 326.826 130.858 327.002 C 131.002 327.177 131.112 327.38 131.188 327.607 C 131.264 327.836 131.302 328.074 131.302 328.322 C 131.302 328.586 131.268 328.836 131.2 329.072 C 131.132 329.307 131.026 329.511 130.882 329.683 C 130.738 329.855 130.558 329.994 130.342 330.097 C 130.126 330.201 129.874 330.254 129.586 330.254 C 129.298 330.254 129.046 330.203 128.829 330.103 Z M 130.678 332.941 C 130.43 333.174 130.102 333.289 129.694 333.289 C 129.262 333.289 128.913 333.183 128.65 332.971 C 128.386 332.759 128.18 332.492 128.032 332.168 C 127.884 331.843 127.782 331.494 127.725 331.117 C 127.67 330.742 127.638 330.389 127.63 330.061 L 127.654 330.037 C 127.894 330.429 128.192 330.713 128.548 330.889 C 128.904 331.065 129.314 331.154 129.778 331.154 C 130.186 331.154 130.552 331.084 130.876 330.943 C 131.2 330.804 131.472 330.609 131.692 330.361 C 131.912 330.113 132.082 329.822 132.202 329.486 C 132.322 329.149 132.382 328.785 132.382 328.393 C 132.382 328.082 132.334 327.758 132.238 327.422 C 132.142 327.086 131.984 326.779 131.764 326.504 C 131.543 326.227 131.252 326 130.888 325.82 C 130.524 325.639 130.074 325.55 129.537 325.55 C 128.906 325.55 128.398 325.677 128.014 325.933 C 127.63 326.189 127.334 326.517 127.126 326.918 C 126.917 327.317 126.78 327.758 126.712 328.238 C 126.643 328.718 126.61 329.181 126.61 329.63 C 126.61 330.213 126.66 330.779 126.76 331.328 C 126.86 331.875 127.03 332.361 127.27 332.785 C 127.51 333.209 127.829 333.549 128.23 333.805 C 128.63 334.061 129.134 334.189 129.742 334.189 C 130.446 334.189 131.006 334.004 131.422 333.632 C 131.838 333.259 132.078 332.721 132.142 332.017 L 131.121 332.017 C 131.074 332.402 130.926 332.709 130.678 332.941 " fill="#0072bc"/>
<path transform="matrix(1,0,0,-1,-134.1627,447.831)" d="M 138.316 329.683 C 138.24 329.959 138.123 330.205 137.968 330.422 C 137.811 330.638 137.612 330.809 137.368 330.937 C 137.123 331.065 136.837 331.13 136.51 331.13 C 136.165 331.13 135.873 331.061 135.634 330.925 C 135.393 330.789 135.198 330.611 135.046 330.391 C 134.893 330.172 134.784 329.922 134.716 329.641 C 134.647 329.361 134.614 329.078 134.614 328.789 C 134.614 328.485 134.65 328.191 134.722 327.908 C 134.793 327.623 134.908 327.373 135.063 327.158 C 135.22 326.941 135.421 326.767 135.67 326.636 C 135.917 326.504 136.218 326.437 136.57 326.437 C 136.921 326.437 137.216 326.506 137.452 326.641 C 137.688 326.777 137.877 326.957 138.021 327.181 C 138.165 327.405 138.27 327.662 138.333 327.949 C 138.397 328.238 138.43 328.533 138.43 328.838 C 138.43 329.125 138.392 329.408 138.316 329.683 Z M 134.65 331.886 L 134.65 331.045 L 134.674 331.045 C 134.842 331.389 135.105 331.639 135.466 331.795 C 135.826 331.951 136.222 332.029 136.654 332.029 C 137.134 332.029 137.552 331.941 137.908 331.765 C 138.264 331.59 138.559 331.351 138.796 331.052 C 139.032 330.752 139.209 330.405 139.329 330.013 C 139.45 329.621 139.51 329.205 139.51 328.765 C 139.51 328.326 139.452 327.91 139.335 327.517 C 139.22 327.125 139.043 326.783 138.808 326.492 C 138.572 326.199 138.275 325.97 137.92 325.802 C 137.563 325.634 137.149 325.55 136.678 325.55 C 136.525 325.55 136.355 325.566 136.167 325.597 C 135.979 325.63 135.793 325.681 135.61 325.754 C 135.426 325.826 135.251 325.924 135.088 326.048 C 134.924 326.172 134.786 326.326 134.674 326.509 L 134.65 326.509 L 134.65 323.318 L 133.63 323.318 L 133.63 331.886 L 134.65 331.886 " fill="#0072bc"/>
<path transform="matrix(1,0,0,-1,-134.1627,447.831)" d="M 140.217 331.886 L 141.525 331.886 L 143.013 329.714 L 144.561 331.886 L 145.786 331.886 L 143.649 329.029 L 146.049 325.681 L 144.741 325.681 L 143.013 328.25 L 141.286 325.681 L 140.049 325.681 L 142.377 328.945 L 140.217 331.886 " fill="#0072bc"/>
<path transform="matrix(1,0,0,-1,-134.1627,447.831)" d="M 146.757 328.537 L 150.225 328.537 L 150.225 329.498 L 146.757 329.498 Z " fill="#0072bc"/>
<path transform="matrix(1,0,0,-1,-134.1627,447.831)" d="M 154.077 325.681 L 154.077 331.777 L 151.869 331.777 L 151.869 332.593 C 152.157 332.593 152.437 332.615 152.709 332.66 C 152.981 332.703 153.227 332.785 153.447 332.906 C 153.667 333.025 153.853 333.189 154.005 333.397 C 154.157 333.605 154.261 333.869 154.317 334.189 L 155.097 334.189 L 155.097 325.681 L 154.077 325.681 " fill="#0072bc"/>
<path transform="matrix(1,0,0,-1,-134.1627,447.831)" d="M 158.157 332.377 C 158.269 332.746 158.443 333.063 158.679 333.332 C 158.915 333.599 159.209 333.809 159.561 333.961 C 159.913 334.113 160.313 334.189 160.761 334.189 C 161.129 334.189 161.475 334.136 161.799 334.027 C 162.123 333.92 162.405 333.763 162.645 333.559 C 162.885 333.355 163.075 333.101 163.215 332.798 C 163.355 332.494 163.425 332.141 163.425 331.742 C 163.425 331.365 163.367 331.033 163.251 330.746 C 163.135 330.457 162.981 330.199 162.789 329.971 C 162.597 329.744 162.377 329.537 162.129 329.353 C 161.881 329.17 161.625 328.994 161.361 328.826 C 161.097 328.666 160.833 328.508 160.569 328.351 C 160.305 328.195 160.063 328.029 159.843 327.853 C 159.623 327.677 159.435 327.488 159.279 327.283 C 159.123 327.08 159.021 326.845 158.973 326.582 L 163.341 326.582 L 163.341 325.681 L 157.785 325.681 C 157.825 326.185 157.915 326.615 158.055 326.971 C 158.195 327.328 158.373 327.638 158.589 327.902 C 158.805 328.166 159.049 328.397 159.321 328.597 C 159.593 328.797 159.877 328.985 160.173 329.162 C 160.533 329.386 160.849 329.592 161.121 329.779 C 161.393 329.967 161.619 330.158 161.799 330.349 C 161.979 330.541 162.115 330.75 162.207 330.973 C 162.299 331.197 162.345 331.457 162.345 331.754 C 162.345 331.985 162.301 332.195 162.213 332.384 C 162.125 332.571 162.007 332.733 161.859 332.869 C 161.711 333.006 161.537 333.109 161.337 333.181 C 161.137 333.254 160.925 333.289 160.701 333.289 C 160.405 333.289 160.151 333.227 159.939 333.103 C 159.727 332.979 159.553 332.817 159.417 332.617 C 159.281 332.418 159.183 332.191 159.123 331.939 C 159.063 331.687 159.037 331.433 159.045 331.177 L 158.025 331.177 C 158.001 331.609 158.045 332.009 158.157 332.377 " fill="#0072bc"/>
<path transform="matrix(1,0,0,-1,-134.1627,447.831)" d="M 165.783 328.795 C 165.803 328.399 165.868 328.027 165.975 327.679 C 166.083 327.332 166.257 327.037 166.497 326.798 C 166.737 326.557 167.073 326.437 167.505 326.437 C 167.938 326.437 168.273 326.557 168.514 326.798 C 168.753 327.037 168.927 327.332 169.036 327.679 C 169.143 328.027 169.207 328.399 169.227 328.795 C 169.247 329.191 169.257 329.55 169.257 329.869 C 169.257 330.078 169.255 330.307 169.251 330.559 C 169.247 330.811 169.227 331.063 169.191 331.315 C 169.155 331.568 169.104 331.813 169.036 332.054 C 168.967 332.293 168.868 332.504 168.735 332.683 C 168.604 332.863 168.438 333.009 168.237 333.121 C 168.037 333.233 167.793 333.289 167.505 333.289 C 167.217 333.289 166.973 333.233 166.773 333.121 C 166.573 333.009 166.407 332.863 166.275 332.683 C 166.143 332.504 166.043 332.293 165.975 332.054 C 165.907 331.813 165.855 331.568 165.819 331.315 C 165.783 331.063 165.763 330.811 165.759 330.559 C 165.755 330.307 165.753 330.078 165.753 329.869 C 165.753 329.55 165.763 329.191 165.783 328.795 Z M 164.697 330.83 C 164.713 331.166 164.753 331.494 164.817 331.813 C 164.881 332.133 164.974 332.437 165.093 332.725 C 165.213 333.013 165.377 333.265 165.585 333.481 C 165.793 333.697 166.055 333.869 166.371 333.998 C 166.688 334.125 167.065 334.189 167.505 334.189 C 167.945 334.189 168.323 334.125 168.64 333.998 C 168.955 333.869 169.217 333.697 169.425 333.481 C 169.633 333.265 169.797 333.013 169.917 332.725 C 170.037 332.437 170.129 332.133 170.193 331.813 C 170.257 331.494 170.297 331.166 170.313 330.83 C 170.329 330.494 170.337 330.17 170.337 329.857 C 170.337 329.545 170.329 329.221 170.313 328.886 C 170.297 328.55 170.257 328.221 170.193 327.902 C 170.129 327.582 170.037 327.279 169.917 326.996 C 169.797 326.711 169.633 326.461 169.425 326.246 C 169.217 326.029 168.957 325.859 168.645 325.736 C 168.333 325.611 167.954 325.55 167.505 325.55 C 167.065 325.55 166.688 325.611 166.371 325.736 C 166.055 325.859 165.793 326.029 165.585 326.246 C 165.377 326.461 165.213 326.711 165.093 326.996 C 164.974 327.279 164.881 327.582 164.817 327.902 C 164.753 328.221 164.713 328.55 164.697 328.886 C 164.681 329.221 164.673 329.545 164.673 329.857 C 164.673 330.17 164.681 330.494 164.697 330.83 " fill="#0072bc"/>
<path transform="matrix(1,0,0,-1,-134.1627,447.831)" d="M 176.331 329.683 C 176.255 329.959 176.139 330.205 175.983 330.422 C 175.827 330.638 175.627 330.809 175.383 330.937 C 175.139 331.065 174.853 331.13 174.525 331.13 C 174.181 331.13 173.889 331.061 173.649 330.925 C 173.409 330.789 173.213 330.611 173.061 330.391 C 172.909 330.172 172.799 329.922 172.731 329.641 C 172.663 329.361 172.629 329.078 172.629 328.789 C 172.629 328.485 172.665 328.191 172.737 327.908 C 172.809 327.623 172.923 327.373 173.079 327.158 C 173.235 326.941 173.437 326.767 173.686 326.636 C 173.933 326.504 174.233 326.437 174.585 326.437 C 174.937 326.437 175.231 326.506 175.467 326.641 C 175.703 326.777 175.893 326.957 176.037 327.181 C 176.181 327.405 176.285 327.662 176.349 327.949 C 176.413 328.238 176.445 328.533 176.445 328.838 C 176.445 329.125 176.407 329.408 176.331 329.683 Z M 172.665 331.886 L 172.665 331.045 L 172.689 331.045 C 172.857 331.389 173.121 331.639 173.481 331.795 C 173.841 331.951 174.237 332.029 174.669 332.029 C 175.149 332.029 175.567 331.941 175.923 331.765 C 176.279 331.59 176.575 331.351 176.811 331.052 C 177.047 330.752 177.225 330.405 177.345 330.013 C 177.465 329.621 177.525 329.205 177.525 328.765 C 177.525 328.326 177.467 327.91 177.351 327.517 C 177.235 327.125 177.059 326.783 176.823 326.492 C 176.587 326.199 176.291 325.97 175.936 325.802 C 175.579 325.634 175.165 325.55 174.693 325.55 C 174.541 325.55 174.371 325.566 174.183 325.597 C 173.995 325.63 173.809 325.681 173.625 325.754 C 173.441 325.826 173.267 325.924 173.104 326.048 C 172.939 326.172 172.801 326.326 172.689 326.509 L 172.665 326.509 L 172.665 323.318 L 171.645 323.318 L 171.645 331.886 L 172.665 331.886 " fill="#0072bc"/>
<path transform="matrix(1,0,0,-1,-134.1627,447.831)" d="M 178.233 331.886 L 179.541 331.886 L 181.029 329.714 L 182.577 331.886 L 183.801 331.886 L 181.665 329.029 L 184.065 325.681 L 182.757 325.681 L 181.029 328.25 L 179.301 325.681 L 178.065 325.681 L 180.393 328.945 L 178.233 331.886 " fill="#0072bc"/>
<path transform="matrix(1,0,0,-1,-134.1627,447.831)" d="M 335.633 348.65 L 335.633 341.043 L 340.169 341.043 L 340.169 340.082 L 334.494 340.082 L 334.494 348.65 L 335.633 348.65 " fill="#0072bc"/>
<path transform="matrix(1,0,0,-1,-134.1627,447.831)" d="M 344.333 343.076 C 344.124 343.032 343.908 342.996 343.679 342.968 C 343.451 342.94 343.22 342.908 342.989 342.873 C 342.757 342.836 342.548 342.778 342.365 342.699 C 342.181 342.619 342.031 342.504 341.915 342.356 C 341.798 342.209 341.742 342.006 341.742 341.75 C 341.742 341.582 341.775 341.44 341.843 341.324 C 341.911 341.209 341.999 341.115 342.107 341.043 C 342.214 340.97 342.343 340.918 342.492 340.886 C 342.639 340.854 342.788 340.838 342.941 340.838 C 343.277 340.838 343.565 340.884 343.805 340.976 C 344.044 341.068 344.241 341.184 344.393 341.324 C 344.544 341.465 344.658 341.617 344.729 341.781 C 344.8 341.944 344.837 342.098 344.837 342.242 L 344.837 343.287 C 344.708 343.19 344.54 343.121 344.333 343.076 Z M 345.761 339.951 C 345.497 339.951 345.287 340.024 345.13 340.172 C 344.975 340.32 344.897 340.562 344.897 340.898 C 344.617 340.562 344.29 340.32 343.919 340.172 C 343.546 340.024 343.145 339.951 342.712 339.951 C 342.433 339.951 342.169 339.98 341.921 340.041 C 341.673 340.1 341.454 340.201 341.267 340.34 C 341.079 340.48 340.931 340.66 340.824 340.881 C 340.714 341.1 340.662 341.367 340.662 341.679 C 340.662 342.03 340.721 342.318 340.841 342.543 C 340.96 342.766 341.119 342.948 341.315 343.088 C 341.511 343.228 341.735 343.334 341.987 343.406 C 342.239 343.478 342.497 343.539 342.761 343.586 C 343.04 343.642 343.307 343.684 343.559 343.713 C 343.811 343.74 344.033 343.78 344.225 343.832 C 344.417 343.884 344.569 343.961 344.681 344.06 C 344.792 344.16 344.849 344.306 344.849 344.498 C 344.849 344.722 344.807 344.902 344.723 345.039 C 344.639 345.174 344.531 345.278 344.399 345.35 C 344.267 345.422 344.119 345.47 343.954 345.494 C 343.79 345.518 343.628 345.531 343.469 345.531 C 343.037 345.531 342.677 345.448 342.389 345.285 C 342.101 345.121 341.945 344.81 341.921 344.354 L 340.901 344.354 C 340.917 344.738 340.997 345.062 341.141 345.326 C 341.285 345.59 341.477 345.804 341.716 345.968 C 341.956 346.133 342.233 346.25 342.544 346.322 C 342.857 346.394 343.185 346.43 343.529 346.43 C 343.809 346.43 344.087 346.41 344.363 346.371 C 344.639 346.33 344.889 346.248 345.113 346.125 C 345.337 346 345.517 345.826 345.653 345.602 C 345.788 345.379 345.857 345.086 345.857 344.726 L 345.857 341.535 C 345.857 341.295 345.871 341.119 345.899 341.006 C 345.927 340.894 346.021 340.838 346.181 340.838 C 346.269 340.838 346.372 340.858 346.494 340.898 L 346.494 340.106 C 346.317 340.002 346.074 339.951 345.761 339.951 " fill="#0072bc"/>
<path transform="matrix(1,0,0,-1,-134.1627,447.831)" d="M 348.365 346.287 L 348.365 344.978 L 348.388 344.978 C 348.636 345.482 348.941 345.854 349.3 346.095 C 349.661 346.334 350.117 346.446 350.669 346.43 L 350.669 345.35 C 350.261 345.35 349.913 345.295 349.624 345.182 C 349.337 345.07 349.105 344.906 348.929 344.69 C 348.753 344.474 348.624 344.213 348.544 343.904 C 348.464 343.596 348.425 343.242 348.425 342.842 L 348.425 340.082 L 347.405 340.082 L 347.405 346.287 L 348.365 346.287 " fill="#0072bc"/>
<path transform="matrix(1,0,0,-1,-134.1627,447.831)" d="M 354.454 341.121 C 354.691 341.259 354.88 341.444 355.025 341.672 C 355.169 341.9 355.275 342.158 355.343 342.446 C 355.411 342.734 355.445 343.022 355.445 343.31 C 355.445 343.582 355.413 343.85 355.349 344.115 C 355.285 344.379 355.183 344.617 355.042 344.828 C 354.903 345.041 354.72 345.211 354.497 345.338 C 354.273 345.467 354.001 345.531 353.681 345.531 C 353.353 345.531 353.073 345.468 352.841 345.345 C 352.609 345.22 352.419 345.054 352.271 344.846 C 352.122 344.638 352.015 344.398 351.947 344.127 C 351.878 343.854 351.845 343.57 351.845 343.274 C 351.845 342.994 351.872 342.715 351.929 342.434 C 351.985 342.154 352.081 341.9 352.216 341.672 C 352.353 341.444 352.533 341.259 352.757 341.121 C 352.981 340.98 353.261 340.91 353.597 340.91 C 353.933 340.91 354.218 340.98 354.454 341.121 Z M 355.757 338.33 C 355.292 337.826 354.565 337.574 353.574 337.574 C 353.285 337.574 352.992 337.606 352.691 337.67 C 352.391 337.734 352.119 337.838 351.874 337.982 C 351.63 338.127 351.429 338.314 351.269 338.547 C 351.109 338.779 351.021 339.062 351.005 339.398 L 352.025 339.398 C 352.033 339.215 352.091 339.058 352.199 338.93 C 352.307 338.802 352.439 338.699 352.595 338.619 C 352.751 338.539 352.921 338.48 353.105 338.444 C 353.288 338.408 353.464 338.39 353.632 338.39 C 353.969 338.39 354.253 338.449 354.485 338.564 C 354.716 338.68 354.91 338.84 355.061 339.045 C 355.212 339.248 355.323 339.494 355.391 339.783 C 355.458 340.07 355.494 340.386 355.494 340.73 L 355.494 341.138 L 355.469 341.138 C 355.292 340.754 355.027 340.472 354.671 340.293 C 354.315 340.112 353.937 340.022 353.537 340.022 C 353.073 340.022 352.669 340.106 352.326 340.274 C 351.981 340.442 351.693 340.668 351.46 340.953 C 351.229 341.236 351.054 341.568 350.939 341.949 C 350.823 342.328 350.765 342.73 350.765 343.154 C 350.765 343.522 350.813 343.9 350.91 344.289 C 351.005 344.675 351.165 345.028 351.389 345.345 C 351.613 345.66 351.91 345.92 352.277 346.125 C 352.645 346.328 353.097 346.43 353.632 346.43 C 354.025 346.43 354.384 346.343 354.712 346.172 C 355.04 346 355.296 345.742 355.481 345.398 L 355.494 345.398 L 355.494 346.287 L 356.453 346.287 L 356.453 340.61 C 356.453 339.595 356.22 338.834 355.757 338.33 " fill="#0072bc"/>
<path transform="matrix(1,0,0,-1,-134.1627,447.831)" d="M 362.134 344.463 C 362.042 344.679 361.919 344.865 361.763 345.02 C 361.607 345.177 361.422 345.3 361.21 345.392 C 360.998 345.484 360.765 345.531 360.509 345.531 C 360.245 345.531 360.006 345.484 359.794 345.392 C 359.582 345.3 359.4 345.174 359.248 345.014 C 359.097 344.854 358.976 344.668 358.888 344.457 C 358.8 344.244 358.748 344.018 358.733 343.778 L 362.296 343.778 C 362.281 344.018 362.226 344.246 362.134 344.463 Z M 362.38 340.478 C 361.917 340.127 361.332 339.951 360.628 339.951 C 360.132 339.951 359.703 340.031 359.339 340.19 C 358.974 340.35 358.668 340.574 358.421 340.862 C 358.173 341.15 357.987 341.494 357.863 341.894 C 357.739 342.295 357.668 342.73 357.653 343.203 C 357.653 343.674 357.724 344.106 357.869 344.498 C 358.013 344.89 358.214 345.23 358.474 345.518 C 358.734 345.806 359.042 346.03 359.399 346.19 C 359.754 346.35 360.144 346.43 360.569 346.43 C 361.121 346.43 361.579 346.316 361.943 346.088 C 362.306 345.86 362.599 345.57 362.819 345.218 C 363.038 344.866 363.191 344.482 363.275 344.066 C 363.359 343.65 363.392 343.254 363.376 342.879 L 358.733 342.879 C 358.724 342.606 358.757 342.348 358.829 342.104 C 358.901 341.86 359.017 341.644 359.177 341.457 C 359.336 341.268 359.54 341.119 359.788 341.006 C 360.037 340.894 360.329 340.838 360.664 340.838 C 361.097 340.838 361.451 340.938 361.726 341.138 C 362.003 341.338 362.185 341.642 362.273 342.05 L 363.281 342.05 C 363.144 341.354 362.845 340.83 362.38 340.478 " fill="#0072bc"/>
<path transform="matrix(1,0,0,-1,-134.1627,447.831)" d="M 365.357 346.287 L 365.357 344.978 L 365.38 344.978 C 365.628 345.482 365.933 345.854 366.292 346.095 C 366.652 346.334 367.109 346.446 367.661 346.43 L 367.661 345.35 C 367.252 345.35 366.905 345.295 366.617 345.182 C 366.329 345.07 366.096 344.906 365.92 344.69 C 365.745 344.474 365.617 344.213 365.537 343.904 C 365.456 343.596 365.417 343.242 365.417 342.842 L 365.417 340.082 L 364.396 340.082 L 364.396 346.287 L 365.357 346.287 " fill="#0072bc"/>
<path transform="matrix(1,0,0,-1,-134.1627,447.831)" d="M 318.257 330.986 L 318.257 331.886 L 319.301 331.886 L 319.301 332.81 C 319.301 333.314 319.447 333.697 319.74 333.957 C 320.031 334.217 320.456 334.346 321.017 334.346 C 321.113 334.346 321.223 334.338 321.347 334.322 C 321.471 334.306 321.581 334.283 321.677 334.25 L 321.677 333.363 C 321.589 333.394 321.494 333.416 321.389 333.429 C 321.285 333.44 321.189 333.447 321.101 333.447 C 320.853 333.447 320.662 333.398 320.525 333.302 C 320.389 333.207 320.322 333.022 320.322 332.75 L 320.322 331.886 L 321.521 331.886 L 321.521 330.986 L 320.322 330.986 L 320.322 325.682 L 319.301 325.682 L 319.301 330.986 L 318.257 330.986 " fill="#0072bc"/>
<path transform="matrix(1,0,0,-1,-134.1627,447.831)" d="M 323.328 327.777 C 323.427 327.484 323.565 327.24 323.742 327.045 C 323.917 326.848 324.122 326.699 324.359 326.595 C 324.595 326.49 324.845 326.438 325.109 326.438 C 325.372 326.438 325.622 326.49 325.859 326.595 C 326.095 326.699 326.3 326.848 326.477 327.045 C 326.653 327.24 326.79 327.484 326.891 327.777 C 326.992 328.068 327.04 328.402 327.04 328.779 C 327.04 329.154 326.992 329.488 326.891 329.781 C 326.79 330.072 326.653 330.318 326.477 330.518 C 326.3 330.718 326.095 330.871 325.859 330.974 C 325.622 331.078 325.372 331.131 325.109 331.131 C 324.845 331.131 324.595 331.078 324.359 330.974 C 324.122 330.871 323.917 330.718 323.742 330.518 C 323.565 330.318 323.427 330.072 323.328 329.781 C 323.227 329.488 323.177 329.154 323.177 328.779 C 323.177 328.402 323.227 328.068 323.328 327.777 Z M 322.288 330.056 C 322.417 330.453 322.609 330.797 322.865 331.088 C 323.121 331.381 323.437 331.611 323.813 331.779 C 324.189 331.947 324.621 332.031 325.109 332.031 C 325.605 332.031 326.038 331.947 326.412 331.779 C 326.783 331.611 327.097 331.381 327.353 331.088 C 327.609 330.797 327.8 330.453 327.929 330.056 C 328.057 329.66 328.121 329.234 328.121 328.779 C 328.121 328.322 328.057 327.898 327.929 327.507 C 327.8 327.115 327.609 326.772 327.353 326.48 C 327.097 326.188 326.783 325.961 326.412 325.797 C 326.038 325.633 325.605 325.55 325.109 325.55 C 324.621 325.55 324.189 325.633 323.813 325.797 C 323.437 325.961 323.121 326.188 322.865 326.48 C 322.609 326.772 322.417 327.115 322.288 327.507 C 322.162 327.898 322.097 328.322 322.097 328.779 C 322.097 329.234 322.162 329.66 322.288 330.056 " fill="#0072bc"/>
<path transform="matrix(1,0,0,-1,-134.1627,447.831)" d="M 330.246 331.886 L 330.246 330.578 L 330.269 330.578 C 330.517 331.082 330.822 331.455 331.181 331.695 C 331.54 331.934 331.997 332.047 332.549 332.031 L 332.549 330.951 C 332.141 330.951 331.793 330.894 331.505 330.783 C 331.217 330.67 330.985 330.507 330.809 330.291 C 330.633 330.074 330.505 329.812 330.425 329.504 C 330.345 329.197 330.305 328.843 330.305 328.442 L 330.305 325.682 L 329.285 325.682 L 329.285 331.886 L 330.246 331.886 " fill="#0072bc"/>
<path transform="matrix(1,0,0,-1,-134.1627,447.831)" d="M 339.136 325.682 L 339.136 331.779 L 336.929 331.779 L 336.929 332.595 C 337.216 332.595 337.496 332.617 337.769 332.66 C 338.04 332.705 338.287 332.787 338.507 332.906 C 338.726 333.027 338.912 333.19 339.065 333.398 C 339.216 333.606 339.321 333.871 339.376 334.19 L 340.157 334.19 L 340.157 325.682 L 339.136 325.682 " fill="#0072bc"/>
<path transform="matrix(1,0,0,-1,-134.1627,447.831)" d="M 343.217 332.379 C 343.329 332.746 343.503 333.064 343.74 333.332 C 343.975 333.6 344.269 333.81 344.621 333.963 C 344.973 334.114 345.372 334.19 345.822 334.19 C 346.189 334.19 346.535 334.136 346.859 334.029 C 347.183 333.92 347.465 333.764 347.704 333.56 C 347.945 333.356 348.135 333.102 348.275 332.799 C 348.415 332.494 348.486 332.142 348.486 331.742 C 348.486 331.367 348.427 331.035 348.311 330.746 C 348.195 330.459 348.04 330.201 347.849 329.972 C 347.658 329.744 347.437 329.539 347.189 329.354 C 346.941 329.17 346.685 328.994 346.421 328.826 C 346.158 328.666 345.893 328.509 345.628 328.352 C 345.365 328.197 345.122 328.03 344.904 327.854 C 344.683 327.679 344.496 327.488 344.339 327.285 C 344.183 327.08 344.081 326.846 344.033 326.582 L 348.402 326.582 L 348.402 325.682 L 342.845 325.682 C 342.885 326.186 342.975 326.617 343.115 326.972 C 343.255 327.328 343.433 327.638 343.649 327.902 C 343.865 328.166 344.109 328.398 344.381 328.598 C 344.653 328.799 344.937 328.986 345.233 329.162 C 345.593 329.386 345.91 329.593 346.181 329.781 C 346.453 329.968 346.679 330.158 346.859 330.35 C 347.038 330.543 347.175 330.75 347.267 330.974 C 347.359 331.199 347.406 331.459 347.406 331.754 C 347.406 331.986 347.361 332.197 347.273 332.384 C 347.185 332.572 347.067 332.734 346.919 332.871 C 346.771 333.006 346.597 333.111 346.397 333.182 C 346.197 333.254 345.985 333.291 345.761 333.291 C 345.464 333.291 345.21 333.228 344.999 333.104 C 344.787 332.98 344.613 332.818 344.477 332.619 C 344.341 332.418 344.244 332.192 344.183 331.94 C 344.122 331.688 344.097 331.434 344.105 331.179 L 343.085 331.179 C 343.061 331.611 343.105 332.011 343.217 332.379 " fill="#0072bc"/>
<path transform="matrix(1,0,0,-1,-134.1627,447.831)" d="M 350.843 328.797 C 350.863 328.4 350.927 328.029 351.035 327.68 C 351.143 327.332 351.317 327.039 351.557 326.799 C 351.796 326.558 352.132 326.438 352.565 326.438 C 352.997 326.438 353.333 326.558 353.574 326.799 C 353.813 327.039 353.987 327.332 354.095 327.68 C 354.203 328.029 354.267 328.4 354.287 328.797 C 354.306 329.192 354.317 329.55 354.317 329.871 C 354.317 330.078 354.315 330.308 354.311 330.56 C 354.306 330.812 354.287 331.064 354.251 331.316 C 354.214 331.568 354.163 331.814 354.095 332.054 C 354.027 332.295 353.927 332.504 353.794 332.684 C 353.663 332.865 353.497 333.009 353.296 333.123 C 353.097 333.234 352.853 333.291 352.565 333.291 C 352.277 333.291 352.033 333.234 351.833 333.123 C 351.632 333.009 351.466 332.865 351.335 332.684 C 351.203 332.504 351.103 332.295 351.035 332.054 C 350.966 331.814 350.915 331.568 350.878 331.316 C 350.843 331.064 350.823 330.812 350.819 330.56 C 350.815 330.308 350.813 330.078 350.813 329.871 C 350.813 329.55 350.823 329.192 350.843 328.797 Z M 349.757 330.83 C 349.773 331.166 349.813 331.494 349.876 331.814 C 349.941 332.134 350.033 332.438 350.153 332.726 C 350.273 333.014 350.437 333.266 350.645 333.482 C 350.853 333.699 351.115 333.871 351.431 333.998 C 351.747 334.127 352.124 334.19 352.565 334.19 C 353.005 334.19 353.382 334.127 353.699 333.998 C 354.015 333.871 354.277 333.699 354.485 333.482 C 354.693 333.266 354.857 333.014 354.977 332.726 C 355.097 332.438 355.189 332.134 355.253 331.814 C 355.317 331.494 355.357 331.166 355.372 330.83 C 355.389 330.494 355.397 330.17 355.397 329.858 C 355.397 329.547 355.389 329.222 355.372 328.886 C 355.357 328.55 355.317 328.222 355.253 327.902 C 355.189 327.582 355.097 327.28 354.977 326.996 C 354.857 326.713 354.693 326.463 354.485 326.246 C 354.277 326.031 354.017 325.86 353.704 325.736 C 353.393 325.613 353.013 325.55 352.565 325.55 C 352.124 325.55 351.747 325.613 351.431 325.736 C 351.115 325.86 350.853 326.031 350.645 326.246 C 350.437 326.463 350.273 326.713 350.153 326.996 C 350.033 327.28 349.941 327.582 349.876 327.902 C 349.813 328.222 349.773 328.55 349.757 328.886 C 349.741 329.222 349.733 329.547 349.733 329.858 C 349.733 330.17 349.741 330.494 349.757 330.83 " fill="#0072bc"/>
<path transform="matrix(1,0,0,-1,-134.1627,447.831)" d="M 361.391 329.684 C 361.315 329.961 361.199 330.207 361.042 330.423 C 360.886 330.638 360.687 330.81 360.443 330.938 C 360.199 331.066 359.912 331.131 359.585 331.131 C 359.241 331.131 358.949 331.062 358.708 330.927 C 358.468 330.791 358.273 330.613 358.121 330.392 C 357.968 330.172 357.859 329.922 357.79 329.642 C 357.722 329.362 357.689 329.078 357.689 328.791 C 357.689 328.486 357.725 328.192 357.796 327.908 C 357.869 327.625 357.983 327.375 358.138 327.158 C 358.294 326.942 358.496 326.768 358.746 326.636 C 358.993 326.504 359.292 326.438 359.645 326.438 C 359.996 326.438 360.29 326.506 360.527 326.642 C 360.763 326.778 360.953 326.959 361.097 327.182 C 361.241 327.406 361.345 327.662 361.409 327.951 C 361.472 328.238 361.505 328.535 361.505 328.838 C 361.505 329.127 361.466 329.408 361.391 329.684 Z M 357.725 331.886 L 357.725 331.047 L 357.749 331.047 C 357.917 331.39 358.181 331.64 358.54 331.797 C 358.901 331.953 359.296 332.031 359.729 332.031 C 360.208 332.031 360.626 331.942 360.983 331.766 C 361.339 331.59 361.634 331.352 361.871 331.052 C 362.107 330.752 362.285 330.406 362.405 330.014 C 362.525 329.623 362.585 329.207 362.585 328.766 C 362.585 328.326 362.527 327.91 362.411 327.518 C 362.294 327.127 362.119 326.785 361.882 326.492 C 361.647 326.201 361.351 325.97 360.996 325.802 C 360.638 325.634 360.224 325.55 359.753 325.55 C 359.601 325.55 359.431 325.566 359.243 325.598 C 359.054 325.631 358.869 325.682 358.685 325.754 C 358.501 325.826 358.327 325.924 358.163 326.049 C 357.999 326.172 357.861 326.326 357.749 326.511 L 357.725 326.511 L 357.725 323.318 L 356.704 323.318 L 356.704 331.886 L 357.725 331.886 " fill="#0072bc"/>
<path transform="matrix(1,0,0,-1,-134.1627,447.831)" d="M 363.292 331.886 L 364.601 331.886 L 366.088 329.715 L 367.636 331.886 L 368.861 331.886 L 366.724 329.031 L 369.124 325.682 L 367.816 325.682 L 366.088 328.25 L 364.361 325.682 L 363.124 325.682 L 365.453 328.947 L 363.292 331.886 " fill="#0072bc"/>
<path transform="matrix(1,0,0,-1,-134.1627,447.831)" d="M 379.193 329.127 L 379.193 328.31 L 376.577 328.31 L 376.577 325.682 L 375.761 325.682 L 375.761 328.31 L 373.145 328.31 L 373.145 329.127 L 375.761 329.127 L 375.761 331.754 L 376.577 331.754 L 376.577 329.127 L 379.193 329.127 " fill="#0072bc"/>
<path transform="matrix(1,0,0,-1,-134.1627,447.831)" d="M 152.608 168.545 C 143.614 168.545 136.32 161.252 136.32 152.255 C 136.32 145.058 140.987 138.953 147.46 136.799 C 148.275 136.649 148.572 137.152 148.572 137.584 C 148.572 137.971 148.558 138.995 148.55 140.354 C 144.019 139.37 143.063 142.538 143.063 142.538 C 142.322 144.42 141.254 144.921 141.254 144.921 C 139.775 145.931 141.366 145.911 141.366 145.911 C 143.001 145.796 143.861 144.232 143.861 144.232 C 145.314 141.743 147.674 142.462 148.602 142.879 C 148.75 143.931 149.171 144.649 149.636 145.056 C 146.019 145.467 142.216 146.865 142.216 153.107 C 142.216 154.885 142.851 156.34 143.893 157.478 C 143.725 157.89 143.166 159.547 144.053 161.789 C 144.053 161.789 145.42 162.227 148.532 160.119 C 149.831 160.481 151.225 160.661 152.61 160.668 C 153.994 160.661 155.387 160.481 156.688 160.119 C 159.798 162.227 161.163 161.789 161.163 161.789 C 162.052 159.547 161.493 157.89 161.326 157.478 C 162.37 156.34 163 154.885 163 153.107 C 163 146.849 159.191 145.472 155.563 145.069 C 156.147 144.566 156.668 143.572 156.668 142.053 C 156.668 139.875 156.648 138.118 156.648 137.584 C 156.648 137.148 156.942 136.641 157.768 136.8 C 164.236 138.959 168.899 145.06 168.899 152.255 C 168.899 161.252 161.605 168.545 152.608 168.545 " fill="#ffffff" fill-rule="evenodd"/>
<path transform="matrix(1,0,0,-1,-134.1627,447.831)" d="M 350.609 217.554 C 317.262 217.554 290.221 190.519 290.221 157.167 C 290.221 130.486 307.524 107.85 331.518 99.865 C 334.536 99.306 335.644 101.175 335.644 102.77 C 335.644 104.21 335.588 108.967 335.562 114.013 C 318.762 110.36 315.217 121.138 315.217 121.138 C 312.47 128.118 308.512 129.974 308.512 129.974 C 303.033 133.722 308.925 133.645 308.925 133.645 C 314.989 133.22 318.182 127.422 318.182 127.422 C 323.568 118.19 332.309 120.859 335.755 122.402 C 336.297 126.304 337.862 128.97 339.589 130.477 C 326.176 132.004 312.076 137.182 312.076 160.321 C 312.076 166.914 314.435 172.301 318.298 176.53 C 317.671 178.052 315.604 184.193 318.883 192.511 C 318.883 192.511 323.954 194.134 335.494 186.321 C 340.311 187.659 345.477 188.33 350.609 188.353 C 355.741 188.33 360.911 187.659 365.737 186.321 C 377.263 194.134 382.327 192.511 382.327 192.511 C 385.614 184.193 383.546 178.052 382.919 176.53 C 386.791 172.301 389.134 166.914 389.134 160.321 C 389.134 137.127 375.007 132.02 361.56 130.525 C 363.726 128.651 365.656 124.976 365.656 119.342 C 365.656 111.263 365.586 104.76 365.586 102.77 C 365.586 101.163 366.673 99.28 369.734 99.873 C 393.715 107.867 410.996 130.495 410.996 157.167 C 410.996 190.519 383.959 217.554 350.609 217.554 " fill="#ffffff" fill-rule="evenodd"/>
<path transform="matrix(1,0,0,-1,-134.1627,447.831)" d="M 313.093 130.851 C 312.96 130.55 312.488 130.461 312.058 130.667 C 311.62 130.864 311.374 131.273 311.516 131.574 C 311.646 131.883 312.119 131.968 312.556 131.763 C 312.995 131.565 313.245 131.152 313.093 130.851 " fill="#ffffff"/>
<path transform="matrix(1,0,0,-1,-134.1627,447.831)" d="M 315.539 128.123 C 315.251 127.856 314.688 127.98 314.306 128.402 C 313.911 128.823 313.837 129.386 314.129 129.657 C 314.426 129.924 314.972 129.799 315.368 129.378 C 315.763 128.952 315.84 128.393 315.539 128.123 " fill="#ffffff"/>
<path transform="matrix(1,0,0,-1,-134.1627,447.831)" d="M 317.92 124.645 C 317.55 124.388 316.945 124.629 316.571 125.166 C 316.201 125.703 316.201 126.347 316.579 126.605 C 316.954 126.863 317.55 126.631 317.929 126.098 C 318.298 125.553 318.298 124.908 317.92 124.645 " fill="#ffffff"/>
<path transform="matrix(1,0,0,-1,-134.1627,447.831)" d="M 321.182 121.285 C 320.851 120.92 320.146 121.018 319.63 121.516 C 319.102 122.003 318.955 122.694 319.287 123.059 C 319.622 123.425 320.331 123.322 320.851 122.828 C 321.375 122.342 321.535 121.646 321.182 121.285 " fill="#ffffff"/>
<path transform="matrix(1,0,0,-1,-134.1627,447.831)" d="M 325.682 119.334 C 325.536 118.861 324.857 118.646 324.173 118.847 C 323.49 119.054 323.043 119.608 323.181 120.086 C 323.323 120.562 324.005 120.786 324.694 120.571 C 325.376 120.365 325.824 119.815 325.682 119.334 " fill="#ffffff"/>
<path transform="matrix(1,0,0,-1,-134.1627,447.831)" d="M 330.624 118.972 C 330.641 118.474 330.061 118.061 329.343 118.053 C 328.621 118.036 328.037 118.439 328.029 118.929 C 328.029 119.432 328.596 119.841 329.318 119.853 C 330.036 119.867 330.624 119.467 330.624 118.972 " fill="#ffffff"/>
<path transform="matrix(1,0,0,-1,-134.1627,447.831)" d="M 335.223 119.755 C 335.309 119.269 334.81 118.77 334.097 118.638 C 333.396 118.509 332.747 118.809 332.658 119.291 C 332.571 119.789 333.079 120.288 333.779 120.417 C 334.493 120.541 335.132 120.249 335.223 119.755 " fill="#ffffff"/>
<path transform="matrix(1,0,0,-1,-134.1627,447.831)" stroke-width="1" stroke-linecap="round" stroke-miterlimit="10" stroke-linejoin="miter" fill="none" stroke="#1a81bd" d="M 224.898 223.488 L 224.898 222.988 "/>
<path transform="matrix(1,0,0,-1,-134.1627,447.831)" stroke-width="1" stroke-linecap="round" stroke-dasharray="1,2" stroke-miterlimit="10" stroke-linejoin="miter" fill="none" stroke="#1a81bd" d="M 224.898 220.988 L 224.898 86.995 "/>
<path transform="matrix(1,0,0,-1,-134.1627,447.831)" stroke-width="1" stroke-linecap="round" stroke-miterlimit="10" stroke-linejoin="miter" fill="none" stroke="#1a81bd" d="M 224.898 85.995 L 224.898 85.495 "/>
<path transform="matrix(1,0,0,-1,-134.1627,447.831)" d="M 133.276 71.479 C 132.895 71.756 132.41 71.893 131.818 71.893 C 131.578 71.893 131.342 71.869 131.11 71.822 C 130.877 71.773 130.672 71.693 130.492 71.582 C 130.312 71.468 130.168 71.319 130.059 71.131 C 129.952 70.943 129.898 70.709 129.898 70.429 C 129.898 70.166 129.975 69.951 130.132 69.787 C 130.287 69.623 130.496 69.489 130.756 69.385 C 131.016 69.281 131.309 69.195 131.638 69.127 C 131.966 69.059 132.3 68.985 132.64 68.906 C 132.98 68.826 133.313 68.731 133.642 68.623 C 133.97 68.515 134.264 68.369 134.524 68.185 C 134.784 68.002 134.992 67.769 135.148 67.49 C 135.304 67.209 135.382 66.857 135.382 66.433 C 135.382 65.977 135.28 65.588 135.076 65.263 C 134.871 64.939 134.61 64.675 134.29 64.471 C 133.97 64.267 133.612 64.119 133.216 64.027 C 132.82 63.935 132.426 63.889 132.034 63.889 C 131.554 63.889 131.1 63.949 130.672 64.069 C 130.244 64.189 129.868 64.371 129.544 64.615 C 129.22 64.859 128.964 65.172 128.776 65.552 C 128.588 65.931 128.494 66.381 128.494 66.901 L 129.574 66.901 C 129.574 66.541 129.643 66.231 129.784 65.971 C 129.924 65.711 130.108 65.498 130.336 65.33 C 130.564 65.162 130.829 65.037 131.134 64.957 C 131.438 64.877 131.749 64.838 132.07 64.838 C 132.326 64.838 132.584 64.861 132.844 64.91 C 133.104 64.957 133.338 65.039 133.546 65.156 C 133.754 65.271 133.922 65.429 134.05 65.629 C 134.178 65.83 134.242 66.086 134.242 66.397 C 134.242 66.693 134.163 66.933 134.008 67.117 C 133.852 67.3 133.643 67.451 133.384 67.567 C 133.123 67.683 132.829 67.777 132.502 67.849 C 132.174 67.922 131.84 67.996 131.5 68.072 C 131.16 68.147 130.826 68.235 130.498 68.336 C 130.17 68.435 129.875 68.567 129.616 68.731 C 129.356 68.895 129.148 69.107 128.992 69.367 C 128.836 69.627 128.758 69.953 128.758 70.346 C 128.758 70.777 128.846 71.151 129.022 71.467 C 129.198 71.783 129.432 72.043 129.724 72.248 C 130.016 72.451 130.348 72.603 130.72 72.703 C 131.092 72.803 131.474 72.853 131.866 72.853 C 132.306 72.853 132.714 72.8 133.09 72.697 C 133.466 72.593 133.796 72.429 134.079 72.205 C 134.364 71.981 134.588 71.699 134.752 71.359 C 134.915 71.019 135.006 70.613 135.022 70.141 L 133.942 70.141 C 133.877 70.758 133.656 71.203 133.276 71.479 " fill="#0072bc"/>
<path transform="matrix(1,0,0,-1,-134.1627,447.831)" d="M 137.554 70.285 L 137.554 69.373 L 137.578 69.373 C 138.041 70.078 138.709 70.429 139.581 70.429 C 139.966 70.429 140.313 70.349 140.625 70.189 C 140.938 70.029 141.158 69.758 141.286 69.373 C 141.494 69.709 141.768 69.968 142.108 70.153 C 142.448 70.338 142.822 70.429 143.229 70.429 C 143.541 70.429 143.824 70.395 144.076 70.328 C 144.328 70.26 144.543 70.153 144.724 70.01 C 144.904 69.865 145.043 69.679 145.143 69.451 C 145.244 69.223 145.293 68.949 145.293 68.629 L 145.293 64.082 L 144.274 64.082 L 144.274 68.149 C 144.274 68.342 144.257 68.521 144.225 68.689 C 144.194 68.857 144.134 69.004 144.046 69.127 C 143.957 69.252 143.835 69.349 143.68 69.422 C 143.524 69.494 143.322 69.529 143.074 69.529 C 142.57 69.529 142.174 69.385 141.886 69.097 C 141.598 68.809 141.454 68.425 141.454 67.945 L 141.454 64.082 L 140.433 64.082 L 140.433 68.149 C 140.433 68.349 140.415 68.533 140.38 68.701 C 140.344 68.869 140.282 69.015 140.194 69.139 C 140.105 69.263 139.988 69.359 139.84 69.428 C 139.691 69.496 139.501 69.529 139.27 69.529 C 138.974 69.529 138.72 69.47 138.508 69.349 C 138.295 69.229 138.123 69.086 137.992 68.918 C 137.86 68.75 137.764 68.576 137.704 68.395 C 137.643 68.215 137.614 68.065 137.614 67.945 L 137.614 64.082 L 136.594 64.082 L 136.594 70.285 L 137.554 70.285 " fill="#0072bc"/>
<path transform="matrix(1,0,0,-1,-134.1627,447.831)" d="M 150.165 67.076 C 149.957 67.031 149.74 66.996 149.512 66.967 C 149.284 66.939 149.053 66.908 148.821 66.871 C 148.589 66.836 148.381 66.777 148.198 66.697 C 148.013 66.617 147.863 66.504 147.747 66.355 C 147.631 66.207 147.574 66.006 147.574 65.75 C 147.574 65.582 147.607 65.439 147.675 65.324 C 147.743 65.207 147.831 65.113 147.939 65.041 C 148.047 64.97 148.175 64.918 148.324 64.885 C 148.472 64.853 148.621 64.838 148.773 64.838 C 149.109 64.838 149.397 64.883 149.638 64.975 C 149.877 65.067 150.073 65.183 150.225 65.324 C 150.377 65.463 150.49 65.615 150.561 65.779 C 150.633 65.943 150.669 66.097 150.669 66.242 L 150.669 67.285 C 150.541 67.189 150.373 67.119 150.165 67.076 Z M 151.594 63.949 C 151.329 63.949 151.12 64.023 150.963 64.172 C 150.808 64.319 150.729 64.561 150.729 64.897 C 150.449 64.561 150.123 64.319 149.751 64.172 C 149.379 64.023 148.977 63.949 148.545 63.949 C 148.266 63.949 148.001 63.979 147.753 64.039 C 147.505 64.099 147.287 64.199 147.1 64.34 C 146.912 64.479 146.764 64.659 146.656 64.879 C 146.547 65.099 146.494 65.365 146.494 65.678 C 146.494 66.029 146.554 66.317 146.673 66.541 C 146.793 66.765 146.951 66.947 147.147 67.088 C 147.343 67.227 147.567 67.334 147.819 67.406 C 148.071 67.477 148.329 67.537 148.594 67.586 C 148.873 67.641 149.14 67.683 149.392 67.711 C 149.643 67.739 149.866 67.779 150.058 67.832 C 150.249 67.883 150.401 67.959 150.514 68.059 C 150.625 68.16 150.682 68.305 150.682 68.498 C 150.682 68.721 150.64 68.901 150.556 69.037 C 150.472 69.174 150.363 69.277 150.231 69.349 C 150.1 69.422 149.951 69.47 149.787 69.494 C 149.623 69.517 149.461 69.529 149.302 69.529 C 148.87 69.529 148.51 69.447 148.222 69.283 C 147.933 69.119 147.777 68.809 147.753 68.353 L 146.733 68.353 C 146.749 68.737 146.829 69.061 146.974 69.326 C 147.118 69.59 147.309 69.803 147.549 69.967 C 147.789 70.131 148.065 70.25 148.377 70.322 C 148.689 70.393 149.017 70.429 149.361 70.429 C 149.642 70.429 149.919 70.41 150.195 70.369 C 150.472 70.33 150.722 70.248 150.945 70.123 C 151.169 70 151.35 69.825 151.485 69.601 C 151.621 69.377 151.689 69.086 151.689 68.725 L 151.689 65.533 C 151.689 65.293 151.704 65.117 151.731 65.006 C 151.759 64.893 151.854 64.838 152.014 64.838 C 152.102 64.838 152.205 64.857 152.326 64.897 L 152.326 64.105 C 152.149 64.002 151.906 63.949 151.594 63.949 " fill="#0072bc"/>
<path transform="matrix(1,0,0,-1,-134.1627,447.831)" d="M 153.333 64.082 L 154.35399 64.082 L 154.35399 72.649 L 153.333 72.649 Z " fill="#0072bc"/>
<path transform="matrix(1,0,0,-1,-134.1627,447.831)" d="M 155.997 64.082 L 157.017 64.082 L 157.017 72.649 L 155.997 72.649 Z " fill="#0072bc"/>
<path transform="matrix(1,0,0,-1,-134.1627,447.831)" d="M 101.854 54.986 L 101.854 55.885 L 102.898 55.885 L 102.898 56.809 C 102.898 57.313 103.044 57.695 103.336 57.955 C 103.628 58.215 104.054 58.346 104.614 58.346 C 104.71 58.346 104.82 58.338 104.944 58.322 C 105.068 58.305 105.178 58.281 105.274 58.25 L 105.274 57.361 C 105.186 57.393 105.09 57.416 104.986 57.428 C 104.882 57.439 104.786 57.445 104.698 57.445 C 104.45 57.445 104.258 57.397 104.122 57.302 C 103.986 57.205 103.918 57.021 103.918 56.75 L 103.918 55.885 L 105.118 55.885 L 105.118 54.986 L 103.918 54.986 L 103.918 49.681 L 102.898 49.681 L 102.898 54.986 L 101.854 54.986 " fill="#0072bc"/>
<path transform="matrix(1,0,0,-1,-134.1627,447.831)" d="M 106.924 51.775 C 107.023 51.483 107.162 51.24 107.338 51.043 C 107.514 50.847 107.72 50.697 107.955 50.593 C 108.191 50.49 108.442 50.437 108.705 50.437 C 108.97 50.437 109.22 50.49 109.455 50.593 C 109.691 50.697 109.897 50.847 110.074 51.043 C 110.249 51.24 110.388 51.483 110.488 51.775 C 110.588 52.067 110.638 52.401 110.638 52.777 C 110.638 53.154 110.588 53.487 110.488 53.779 C 110.388 54.072 110.249 54.317 110.074 54.517 C 109.897 54.717 109.691 54.869 109.455 54.973 C 109.22 55.078 108.97 55.13 108.705 55.13 C 108.442 55.13 108.191 55.078 107.955 54.973 C 107.72 54.869 107.514 54.717 107.338 54.517 C 107.162 54.317 107.023 54.072 106.924 53.779 C 106.824 53.487 106.774 53.154 106.774 52.777 C 106.774 52.401 106.824 52.067 106.924 51.775 Z M 105.886 54.055 C 106.014 54.451 106.205 54.795 106.462 55.088 C 106.718 55.379 107.034 55.609 107.41 55.777 C 107.786 55.945 108.218 56.029 108.705 56.029 C 109.202 56.029 109.636 55.945 110.008 55.777 C 110.38 55.609 110.693 55.379 110.95 55.088 C 111.205 54.795 111.397 54.451 111.526 54.055 C 111.654 53.66 111.718 53.233 111.718 52.777 C 111.718 52.322 111.654 51.897 111.526 51.506 C 111.397 51.113 111.205 50.771 110.95 50.479 C 110.693 50.187 110.38 49.959 110.008 49.795 C 109.636 49.632 109.202 49.55 108.705 49.55 C 108.218 49.55 107.786 49.632 107.41 49.795 C 107.034 49.959 106.718 50.187 106.462 50.479 C 106.205 50.771 106.014 51.113 105.886 51.506 C 105.758 51.897 105.694 52.322 105.694 52.777 C 105.694 53.233 105.758 53.66 105.886 54.055 " fill="#0072bc"/>
<path transform="matrix(1,0,0,-1,-134.1627,447.831)" d="M 113.842 55.885 L 113.842 54.578 L 113.866 54.578 C 114.114 55.082 114.418 55.453 114.778 55.693 C 115.138 55.933 115.594 56.045 116.146 56.029 L 116.146 54.949 C 115.738 54.949 115.39 54.893 115.102 54.781 C 114.814 54.67 114.581 54.506 114.406 54.289 C 114.23 54.074 114.101 53.811 114.022 53.504 C 113.942 53.195 113.902 52.842 113.902 52.441 L 113.902 49.681 L 112.882 49.681 L 112.882 55.885 L 113.842 55.885 " fill="#0072bc"/>
<path transform="matrix(1,0,0,-1,-134.1627,447.831)" d="M 122.733 49.681 L 122.733 55.777 L 120.525 55.777 L 120.525 56.593 C 120.813 56.593 121.093 56.615 121.365 56.66 C 121.637 56.703 121.883 56.785 122.103 56.906 C 122.323 57.025 122.509 57.189 122.662 57.397 C 122.813 57.605 122.917 57.869 122.974 58.189 L 123.753 58.189 L 123.753 49.681 L 122.733 49.681 " fill="#0072bc"/>
<path transform="matrix(1,0,0,-1,-134.1627,447.831)" d="M 128.829 54.103 C 128.614 54.004 128.43 53.867 128.278 53.695 C 128.126 53.523 128.012 53.319 127.936 53.084 C 127.86 52.847 127.822 52.597 127.822 52.334 C 127.822 52.07 127.862 51.822 127.942 51.59 C 128.021 51.357 128.136 51.158 128.284 50.99 C 128.432 50.822 128.616 50.687 128.836 50.588 C 129.056 50.487 129.306 50.437 129.586 50.437 C 129.866 50.437 130.112 50.487 130.324 50.588 C 130.536 50.687 130.714 50.826 130.858 51.002 C 131.002 51.178 131.112 51.38 131.188 51.607 C 131.264 51.836 131.302 52.074 131.302 52.322 C 131.302 52.586 131.268 52.836 131.2 53.072 C 131.132 53.307 131.026 53.511 130.882 53.683 C 130.738 53.855 130.558 53.994 130.342 54.097 C 130.126 54.201 129.874 54.254 129.586 54.254 C 129.298 54.254 129.046 54.203 128.829 54.103 Z M 130.678 56.941 C 130.43 57.174 130.102 57.289 129.694 57.289 C 129.262 57.289 128.913 57.183 128.65 56.971 C 128.386 56.76 128.18 56.492 128.032 56.168 C 127.884 55.843 127.782 55.494 127.725 55.117 C 127.67 54.742 127.638 54.389 127.63 54.061 L 127.654 54.037 C 127.894 54.429 128.192 54.713 128.548 54.889 C 128.904 55.065 129.314 55.154 129.778 55.154 C 130.186 55.154 130.552 55.084 130.876 54.943 C 131.2 54.803 131.472 54.609 131.692 54.361 C 131.912 54.113 132.082 53.822 132.202 53.486 C 132.322 53.149 132.382 52.785 132.382 52.393 C 132.382 52.082 132.334 51.758 132.238 51.422 C 132.142 51.086 131.984 50.779 131.764 50.504 C 131.543 50.227 131.252 50 130.888 49.82 C 130.524 49.639 130.074 49.55 129.537 49.55 C 128.906 49.55 128.398 49.678 128.014 49.933 C 127.63 50.189 127.334 50.517 127.126 50.918 C 126.917 51.317 126.78 51.758 126.712 52.238 C 126.643 52.717 126.61 53.181 126.61 53.63 C 126.61 54.213 126.66 54.779 126.76 55.328 C 126.86 55.875 127.03 56.361 127.27 56.785 C 127.51 57.209 127.829 57.549 128.23 57.805 C 128.63 58.061 129.134 58.189 129.742 58.189 C 130.446 58.189 131.006 58.004 131.422 57.632 C 131.838 57.26 132.078 56.721 132.142 56.017 L 131.121 56.017 C 131.074 56.402 130.926 56.709 130.678 56.941 " fill="#0072bc"/>
<path transform="matrix(1,0,0,-1,-134.1627,447.831)" d="M 138.316 53.683 C 138.24 53.959 138.123 54.205 137.968 54.422 C 137.811 54.638 137.612 54.809 137.368 54.937 C 137.123 55.065 136.837 55.13 136.51 55.13 C 136.165 55.13 135.873 55.061 135.634 54.925 C 135.393 54.789 135.198 54.611 135.046 54.391 C 134.893 54.172 134.784 53.922 134.716 53.641 C 134.647 53.361 134.614 53.078 134.614 52.789 C 134.614 52.485 134.65 52.191 134.722 51.908 C 134.793 51.623 134.908 51.373 135.063 51.158 C 135.22 50.941 135.421 50.767 135.67 50.635 C 135.917 50.504 136.218 50.437 136.57 50.437 C 136.921 50.437 137.216 50.506 137.452 50.641 C 137.688 50.777 137.877 50.957 138.021 51.181 C 138.165 51.405 138.27 51.662 138.333 51.949 C 138.397 52.238 138.43 52.533 138.43 52.838 C 138.43 53.125 138.392 53.408 138.316 53.683 Z M 134.65 55.885 L 134.65 55.045 L 134.674 55.045 C 134.842 55.389 135.105 55.639 135.466 55.795 C 135.826 55.951 136.222 56.029 136.654 56.029 C 137.134 56.029 137.552 55.941 137.908 55.765 C 138.264 55.59 138.559 55.351 138.796 55.052 C 139.032 54.752 139.209 54.405 139.329 54.013 C 139.45 53.621 139.51 53.205 139.51 52.765 C 139.51 52.326 139.452 51.91 139.335 51.517 C 139.22 51.125 139.043 50.783 138.808 50.492 C 138.572 50.199 138.275 49.97 137.92 49.802 C 137.563 49.634 137.149 49.55 136.678 49.55 C 136.525 49.55 136.355 49.566 136.167 49.597 C 135.979 49.63 135.793 49.681 135.61 49.754 C 135.426 49.826 135.251 49.924 135.088 50.048 C 134.924 50.172 134.786 50.326 134.674 50.51 L 134.65 50.51 L 134.65 47.318 L 133.63 47.318 L 133.63 55.885 L 134.65 55.885 " fill="#0072bc"/>
<path transform="matrix(1,0,0,-1,-134.1627,447.831)" d="M 140.217 55.885 L 141.525 55.885 L 143.013 53.714 L 144.561 55.885 L 145.786 55.885 L 143.649 53.029 L 146.049 49.681 L 144.741 49.681 L 143.013 52.25 L 141.286 49.681 L 140.049 49.681 L 142.377 52.945 L 140.217 55.885 " fill="#0072bc"/>
<path transform="matrix(1,0,0,-1,-134.1627,447.831)" d="M 146.757 52.537 L 150.225 52.537 L 150.225 53.497999 L 146.757 53.497999 Z " fill="#0072bc"/>
<path transform="matrix(1,0,0,-1,-134.1627,447.831)" d="M 154.077 49.681 L 154.077 55.777 L 151.869 55.777 L 151.869 56.593 C 152.157 56.593 152.437 56.615 152.709 56.66 C 152.981 56.703 153.227 56.785 153.447 56.906 C 153.667 57.025 153.853 57.189 154.005 57.397 C 154.157 57.605 154.261 57.869 154.317 58.189 L 155.097 58.189 L 155.097 49.681 L 154.077 49.681 " fill="#0072bc"/>
<path transform="matrix(1,0,0,-1,-134.1627,447.831)" d="M 158.157 56.377 C 158.269 56.746 158.443 57.063 158.679 57.332 C 158.915 57.599 159.209 57.809 159.561 57.961 C 159.913 58.113 160.313 58.189 160.761 58.189 C 161.129 58.189 161.475 58.135 161.799 58.027 C 162.123 57.92 162.405 57.763 162.645 57.559 C 162.885 57.355 163.075 57.101 163.215 56.798 C 163.355 56.494 163.425 56.141 163.425 55.742 C 163.425 55.365 163.367 55.033 163.251 54.746 C 163.135 54.457 162.981 54.199 162.789 53.971 C 162.597 53.744 162.377 53.537 162.129 53.353 C 161.881 53.17 161.625 52.994 161.361 52.826 C 161.097 52.666 160.833 52.508 160.569 52.351 C 160.305 52.195 160.063 52.029 159.843 51.853 C 159.623 51.678 159.435 51.488 159.279 51.283 C 159.123 51.08 159.021 50.846 158.973 50.582 L 163.341 50.582 L 163.341 49.681 L 157.785 49.681 C 157.825 50.185 157.915 50.615 158.055 50.971 C 158.195 51.328 158.373 51.638 158.589 51.902 C 158.805 52.166 159.049 52.397 159.321 52.597 C 159.593 52.797 159.877 52.985 160.173 53.162 C 160.533 53.385 160.849 53.592 161.121 53.779 C 161.393 53.967 161.619 54.158 161.799 54.349 C 161.979 54.541 162.115 54.75 162.207 54.973 C 162.299 55.197 162.345 55.457 162.345 55.754 C 162.345 55.985 162.301 56.195 162.213 56.384 C 162.125 56.571 162.007 56.733 161.859 56.869 C 161.711 57.006 161.537 57.109 161.337 57.181 C 161.137 57.254 160.925 57.289 160.701 57.289 C 160.405 57.289 160.151 57.227 159.939 57.103 C 159.727 56.979 159.553 56.817 159.417 56.617 C 159.281 56.418 159.183 56.191 159.123 55.939 C 159.063 55.687 159.037 55.433 159.045 55.178 L 158.025 55.178 C 158.001 55.609 158.045 56.01 158.157 56.377 " fill="#0072bc"/>
<path transform="matrix(1,0,0,-1,-134.1627,447.831)" d="M 165.783 52.795 C 165.803 52.399 165.868 52.027 165.975 51.679 C 166.083 51.332 166.257 51.037 166.497 50.798 C 166.737 50.557 167.073 50.437 167.505 50.437 C 167.938 50.437 168.273 50.557 168.514 50.798 C 168.753 51.037 168.927 51.332 169.036 51.679 C 169.143 52.027 169.207 52.399 169.227 52.795 C 169.247 53.191 169.257 53.55 169.257 53.869 C 169.257 54.078 169.255 54.307 169.251 54.559 C 169.247 54.811 169.227 55.063 169.191 55.315 C 169.155 55.568 169.104 55.813 169.036 56.053 C 168.967 56.293 168.868 56.504 168.735 56.683 C 168.604 56.863 168.438 57.01 168.237 57.121 C 168.037 57.233 167.793 57.289 167.505 57.289 C 167.217 57.289 166.973 57.233 166.773 57.121 C 166.573 57.01 166.407 56.863 166.275 56.683 C 166.143 56.504 166.043 56.293 165.975 56.053 C 165.907 55.813 165.855 55.568 165.819 55.315 C 165.783 55.063 165.763 54.811 165.759 54.559 C 165.755 54.307 165.753 54.078 165.753 53.869 C 165.753 53.55 165.763 53.191 165.783 52.795 Z M 164.697 54.83 C 164.713 55.166 164.753 55.494 164.817 55.813 C 164.881 56.133 164.974 56.437 165.093 56.725 C 165.213 57.013 165.377 57.265 165.585 57.481 C 165.793 57.697 166.055 57.869 166.371 57.998 C 166.688 58.125 167.065 58.189 167.505 58.189 C 167.945 58.189 168.323 58.125 168.64 57.998 C 168.955 57.869 169.217 57.697 169.425 57.481 C 169.633 57.265 169.797 57.013 169.917 56.725 C 170.037 56.437 170.129 56.133 170.193 55.813 C 170.257 55.494 170.297 55.166 170.313 54.83 C 170.329 54.494 170.337 54.17 170.337 53.857 C 170.337 53.545 170.329 53.221 170.313 52.885 C 170.297 52.55 170.257 52.221 170.193 51.902 C 170.129 51.582 170.037 51.279 169.917 50.996 C 169.797 50.711 169.633 50.461 169.425 50.246 C 169.217 50.029 168.957 49.859 168.645 49.736 C 168.333 49.611 167.954 49.55 167.505 49.55 C 167.065 49.55 166.688 49.611 166.371 49.736 C 166.055 49.859 165.793 50.029 165.585 50.246 C 165.377 50.461 165.213 50.711 165.093 50.996 C 164.974 51.279 164.881 51.582 164.817 51.902 C 164.753 52.221 164.713 52.55 164.697 52.885 C 164.681 53.221 164.673 53.545 164.673 53.857 C 164.673 54.17 164.681 54.494 164.697 54.83 " fill="#0072bc"/>
<path transform="matrix(1,0,0,-1,-134.1627,447.831)" d="M 176.331 53.683 C 176.255 53.959 176.139 54.205 175.983 54.422 C 175.827 54.638 175.627 54.809 175.383 54.937 C 175.139 55.065 174.853 55.13 174.525 55.13 C 174.181 55.13 173.889 55.061 173.649 54.925 C 173.409 54.789 173.213 54.611 173.061 54.391 C 172.909 54.172 172.799 53.922 172.731 53.641 C 172.663 53.361 172.629 53.078 172.629 52.789 C 172.629 52.485 172.665 52.191 172.737 51.908 C 172.809 51.623 172.923 51.373 173.079 51.158 C 173.235 50.941 173.437 50.767 173.686 50.635 C 173.933 50.504 174.233 50.437 174.585 50.437 C 174.937 50.437 175.231 50.506 175.467 50.641 C 175.703 50.777 175.893 50.957 176.037 51.181 C 176.181 51.405 176.285 51.662 176.349 51.949 C 176.413 52.238 176.445 52.533 176.445 52.838 C 176.445 53.125 176.407 53.408 176.331 53.683 Z M 172.665 55.885 L 172.665 55.045 L 172.689 55.045 C 172.857 55.389 173.121 55.639 173.481 55.795 C 173.841 55.951 174.237 56.029 174.669 56.029 C 175.149 56.029 175.567 55.941 175.923 55.765 C 176.279 55.59 176.575 55.351 176.811 55.052 C 177.047 54.752 177.225 54.405 177.345 54.013 C 177.465 53.621 177.525 53.205 177.525 52.765 C 177.525 52.326 177.467 51.91 177.351 51.517 C 177.235 51.125 177.059 50.783 176.823 50.492 C 176.587 50.199 176.291 49.97 175.936 49.802 C 175.579 49.634 175.165 49.55 174.693 49.55 C 174.541 49.55 174.371 49.566 174.183 49.597 C 173.995 49.63 173.809 49.681 173.625 49.754 C 173.441 49.826 173.267 49.924 173.104 50.048 C 172.939 50.172 172.801 50.326 172.689 50.51 L 172.665 50.51 L 172.665 47.318 L 171.645 47.318 L 171.645 55.885 L 172.665 55.885 " fill="#0072bc"/>
<path transform="matrix(1,0,0,-1,-134.1627,447.831)" d="M 178.233 55.885 L 179.541 55.885 L 181.029 53.714 L 182.577 55.885 L 183.801 55.885 L 181.665 53.029 L 184.065 49.681 L 182.757 49.681 L 181.029 52.25 L 179.301 49.681 L 178.065 49.681 L 180.393 52.945 L 178.233 55.885 " fill="#0072bc"/>
<path transform="matrix(1,0,0,-1,-134.1627,447.831)" d="M 335.633 72.65 L 335.633 65.043 L 340.169 65.043 L 340.169 64.082 L 334.494 64.082 L 334.494 72.65 L 335.633 72.65 " fill="#0072bc"/>
<path transform="matrix(1,0,0,-1,-134.1627,447.831)" d="M 344.333 67.076 C 344.124 67.032 343.908 66.996 343.679 66.968 C 343.451 66.94 343.22 66.908 342.989 66.873 C 342.757 66.836 342.548 66.778 342.365 66.699 C 342.181 66.619 342.031 66.504 341.915 66.356 C 341.798 66.209 341.742 66.006 341.742 65.75 C 341.742 65.582 341.775 65.44 341.843 65.324 C 341.911 65.209 341.999 65.115 342.107 65.043 C 342.214 64.971 342.343 64.918 342.492 64.886 C 342.639 64.854 342.788 64.838 342.941 64.838 C 343.277 64.838 343.565 64.885 343.805 64.976 C 344.044 65.068 344.241 65.184 344.393 65.324 C 344.544 65.465 344.658 65.617 344.729 65.781 C 344.8 65.944 344.837 66.098 344.837 66.242 L 344.837 67.287 C 344.708 67.19 344.54 67.121 344.333 67.076 Z M 345.761 63.951 C 345.497 63.951 345.287 64.024 345.13 64.172 C 344.975 64.32 344.897 64.562 344.897 64.898 C 344.617 64.562 344.29 64.32 343.919 64.172 C 343.546 64.024 343.145 63.951 342.712 63.951 C 342.433 63.951 342.169 63.98 341.921 64.041 C 341.673 64.1 341.454 64.201 341.267 64.34 C 341.079 64.48 340.931 64.66 340.824 64.881 C 340.714 65.1 340.662 65.367 340.662 65.678 C 340.662 66.03 340.721 66.318 340.841 66.543 C 340.96 66.766 341.119 66.948 341.315 67.088 C 341.511 67.228 341.735 67.334 341.987 67.406 C 342.239 67.478 342.497 67.539 342.761 67.586 C 343.04 67.642 343.307 67.684 343.559 67.713 C 343.811 67.74 344.033 67.78 344.225 67.832 C 344.417 67.885 344.569 67.961 344.681 68.06 C 344.792 68.16 344.849 68.306 344.849 68.498 C 344.849 68.722 344.807 68.902 344.723 69.039 C 344.639 69.174 344.531 69.278 344.399 69.35 C 344.267 69.422 344.119 69.471 343.954 69.494 C 343.79 69.518 343.628 69.531 343.469 69.531 C 343.037 69.531 342.677 69.448 342.389 69.285 C 342.101 69.121 341.945 68.81 341.921 68.354 L 340.901 68.354 C 340.917 68.738 340.997 69.062 341.141 69.326 C 341.285 69.59 341.477 69.804 341.716 69.968 C 341.956 70.133 342.233 70.25 342.544 70.322 C 342.857 70.394 343.185 70.43 343.529 70.43 C 343.809 70.43 344.087 70.41 344.363 70.371 C 344.639 70.33 344.889 70.248 345.113 70.125 C 345.337 70 345.517 69.826 345.653 69.602 C 345.788 69.379 345.857 69.086 345.857 68.726 L 345.857 65.535 C 345.857 65.295 345.871 65.119 345.899 65.006 C 345.927 64.894 346.021 64.838 346.181 64.838 C 346.269 64.838 346.372 64.858 346.494 64.898 L 346.494 64.106 C 346.317 64.002 346.074 63.951 345.761 63.951 " fill="#0072bc"/>
<path transform="matrix(1,0,0,-1,-134.1627,447.831)" d="M 348.365 70.287 L 348.365 68.978 L 348.388 68.978 C 348.636 69.482 348.941 69.854 349.3 70.095 C 349.661 70.334 350.117 70.446 350.669 70.43 L 350.669 69.35 C 350.261 69.35 349.913 69.295 349.624 69.182 C 349.337 69.07 349.105 68.906 348.929 68.69 C 348.753 68.474 348.624 68.213 348.544 67.904 C 348.464 67.596 348.425 67.242 348.425 66.842 L 348.425 64.082 L 347.405 64.082 L 347.405 70.287 L 348.365 70.287 " fill="#0072bc"/>
<path transform="matrix(1,0,0,-1,-134.1627,447.831)" d="M 354.454 65.121 C 354.691 65.26 354.88 65.444 355.025 65.672 C 355.169 65.9 355.275 66.158 355.343 66.446 C 355.411 66.734 355.445 67.022 355.445 67.31 C 355.445 67.582 355.413 67.85 355.349 68.115 C 355.285 68.379 355.183 68.617 355.042 68.828 C 354.903 69.041 354.72 69.211 354.497 69.338 C 354.273 69.467 354.001 69.531 353.681 69.531 C 353.353 69.531 353.073 69.468 352.841 69.345 C 352.609 69.221 352.419 69.054 352.271 68.846 C 352.122 68.638 352.015 68.398 351.947 68.127 C 351.878 67.854 351.845 67.57 351.845 67.274 C 351.845 66.994 351.872 66.715 351.929 66.434 C 351.985 66.154 352.081 65.9 352.216 65.672 C 352.353 65.444 352.533 65.26 352.757 65.121 C 352.981 64.98 353.261 64.91 353.597 64.91 C 353.933 64.91 354.218 64.98 354.454 65.121 Z M 355.757 62.33 C 355.292 61.826 354.565 61.574 353.574 61.574 C 353.285 61.574 352.992 61.606 352.691 61.67 C 352.391 61.734 352.119 61.838 351.874 61.982 C 351.63 62.127 351.429 62.314 351.269 62.547 C 351.109 62.779 351.021 63.062 351.005 63.398 L 352.025 63.398 C 352.033 63.215 352.091 63.058 352.199 62.93 C 352.307 62.803 352.439 62.699 352.595 62.619 C 352.751 62.539 352.921 62.48 353.105 62.444 C 353.288 62.408 353.464 62.39 353.632 62.39 C 353.969 62.39 354.253 62.449 354.485 62.564 C 354.716 62.68 354.91 62.84 355.061 63.045 C 355.212 63.248 355.323 63.494 355.391 63.783 C 355.458 64.07 355.494 64.386 355.494 64.73 L 355.494 65.138 L 355.469 65.138 C 355.292 64.754 355.027 64.472 354.671 64.293 C 354.315 64.112 353.937 64.022 353.537 64.022 C 353.073 64.022 352.669 64.106 352.326 64.274 C 351.981 64.442 351.693 64.668 351.46 64.953 C 351.229 65.236 351.054 65.568 350.939 65.949 C 350.823 66.328 350.765 66.73 350.765 67.154 C 350.765 67.522 350.813 67.9 350.91 68.289 C 351.005 68.675 351.165 69.028 351.389 69.345 C 351.613 69.66 351.91 69.92 352.277 70.125 C 352.645 70.328 353.097 70.43 353.632 70.43 C 354.025 70.43 354.384 70.343 354.712 70.172 C 355.04 70 355.296 69.742 355.481 69.398 L 355.494 69.398 L 355.494 70.287 L 356.453 70.287 L 356.453 64.61 C 356.453 63.595 356.22 62.834 355.757 62.33 " fill="#0072bc"/>
<path transform="matrix(1,0,0,-1,-134.1627,447.831)" d="M 362.134 68.463 C 362.042 68.678 361.919 68.865 361.763 69.02 C 361.607 69.177 361.422 69.3 361.21 69.392 C 360.998 69.484 360.765 69.531 360.509 69.531 C 360.245 69.531 360.006 69.484 359.794 69.392 C 359.582 69.3 359.4 69.174 359.248 69.014 C 359.097 68.854 358.976 68.668 358.888 68.457 C 358.8 68.244 358.748 68.018 358.733 67.778 L 362.296 67.778 C 362.281 68.018 362.226 68.246 362.134 68.463 Z M 362.38 64.478 C 361.917 64.127 361.332 63.951 360.628 63.951 C 360.132 63.951 359.703 64.031 359.339 64.19 C 358.974 64.35 358.668 64.574 358.421 64.862 C 358.173 65.15 357.987 65.494 357.863 65.894 C 357.739 66.295 357.668 66.73 357.653 67.203 C 357.653 67.674 357.724 68.106 357.869 68.498 C 358.013 68.89 358.214 69.23 358.474 69.518 C 358.734 69.806 359.042 70.03 359.399 70.19 C 359.754 70.35 360.144 70.43 360.569 70.43 C 361.121 70.43 361.579 70.316 361.943 70.088 C 362.306 69.86 362.599 69.57 362.819 69.218 C 363.038 68.866 363.191 68.482 363.275 68.066 C 363.359 67.65 363.392 67.254 363.376 66.879 L 358.733 66.879 C 358.724 66.606 358.757 66.348 358.829 66.104 C 358.901 65.86 359.017 65.644 359.177 65.457 C 359.336 65.268 359.54 65.119 359.788 65.006 C 360.037 64.894 360.329 64.838 360.664 64.838 C 361.097 64.838 361.451 64.938 361.726 65.138 C 362.003 65.338 362.185 65.642 362.273 66.05 L 363.281 66.05 C 363.144 65.354 362.845 64.83 362.38 64.478 " fill="#0072bc"/>
<path transform="matrix(1,0,0,-1,-134.1627,447.831)" d="M 365.357 70.287 L 365.357 68.978 L 365.38 68.978 C 365.628 69.482 365.933 69.854 366.292 70.095 C 366.652 70.334 367.109 70.446 367.661 70.43 L 367.661 69.35 C 367.252 69.35 366.905 69.295 366.617 69.182 C 366.329 69.07 366.096 68.906 365.92 68.69 C 365.745 68.474 365.617 68.213 365.537 67.904 C 365.456 67.596 365.417 67.242 365.417 66.842 L 365.417 64.082 L 364.396 64.082 L 364.396 70.287 L 365.357 70.287 " fill="#0072bc"/>
<path transform="matrix(1,0,0,-1,-134.1627,447.831)" d="M 318.257 54.986 L 318.257 55.886 L 319.301 55.886 L 319.301 56.81 C 319.301 57.314 319.447 57.697 319.74 57.957 C 320.031 58.217 320.456 58.346 321.017 58.346 C 321.113 58.346 321.223 58.338 321.347 58.322 C 321.471 58.306 321.581 58.283 321.677 58.25 L 321.677 57.363 C 321.589 57.394 321.494 57.416 321.389 57.428 C 321.285 57.44 321.189 57.447 321.101 57.447 C 320.853 57.447 320.662 57.398 320.525 57.303 C 320.389 57.207 320.322 57.022 320.322 56.75 L 320.322 55.886 L 321.521 55.886 L 321.521 54.986 L 320.322 54.986 L 320.322 49.682 L 319.301 49.682 L 319.301 54.986 L 318.257 54.986 " fill="#0072bc"/>
<path transform="matrix(1,0,0,-1,-134.1627,447.831)" d="M 323.328 51.777 C 323.427 51.484 323.565 51.24 323.742 51.045 C 323.917 50.848 324.122 50.699 324.359 50.595 C 324.595 50.49 324.845 50.438 325.109 50.438 C 325.372 50.438 325.622 50.49 325.859 50.595 C 326.095 50.699 326.3 50.848 326.477 51.045 C 326.653 51.24 326.79 51.484 326.891 51.777 C 326.992 52.068 327.04 52.402 327.04 52.779 C 327.04 53.154 326.992 53.488 326.891 53.781 C 326.79 54.072 326.653 54.318 326.477 54.518 C 326.3 54.718 326.095 54.871 325.859 54.974 C 325.622 55.078 325.372 55.131 325.109 55.131 C 324.845 55.131 324.595 55.078 324.359 54.974 C 324.122 54.871 323.917 54.718 323.742 54.518 C 323.565 54.318 323.427 54.072 323.328 53.781 C 323.227 53.488 323.177 53.154 323.177 52.779 C 323.177 52.402 323.227 52.068 323.328 51.777 Z M 322.288 54.056 C 322.417 54.453 322.609 54.797 322.865 55.088 C 323.121 55.381 323.437 55.611 323.813 55.779 C 324.189 55.947 324.621 56.031 325.109 56.031 C 325.605 56.031 326.038 55.947 326.412 55.779 C 326.783 55.611 327.097 55.381 327.353 55.088 C 327.609 54.797 327.8 54.453 327.929 54.056 C 328.057 53.66 328.121 53.234 328.121 52.779 C 328.121 52.322 328.057 51.898 327.929 51.507 C 327.8 51.115 327.609 50.772 327.353 50.48 C 327.097 50.188 326.783 49.961 326.412 49.797 C 326.038 49.633 325.605 49.55 325.109 49.55 C 324.621 49.55 324.189 49.633 323.813 49.797 C 323.437 49.961 323.121 50.188 322.865 50.48 C 322.609 50.772 322.417 51.115 322.288 51.507 C 322.162 51.898 322.097 52.322 322.097 52.779 C 322.097 53.234 322.162 53.66 322.288 54.056 " fill="#0072bc"/>
<path transform="matrix(1,0,0,-1,-134.1627,447.831)" d="M 330.246 55.886 L 330.246 54.578 L 330.269 54.578 C 330.517 55.082 330.822 55.455 331.181 55.695 C 331.54 55.934 331.997 56.047 332.549 56.031 L 332.549 54.951 C 332.141 54.951 331.793 54.894 331.505 54.783 C 331.217 54.67 330.985 54.507 330.809 54.291 C 330.633 54.074 330.505 53.812 330.425 53.504 C 330.345 53.197 330.305 52.842 330.305 52.442 L 330.305 49.682 L 329.285 49.682 L 329.285 55.886 L 330.246 55.886 " fill="#0072bc"/>
<path transform="matrix(1,0,0,-1,-134.1627,447.831)" d="M 339.136 49.682 L 339.136 55.779 L 336.929 55.779 L 336.929 56.595 C 337.216 56.595 337.496 56.617 337.769 56.66 C 338.04 56.705 338.287 56.787 338.507 56.906 C 338.726 57.027 338.912 57.19 339.065 57.398 C 339.216 57.606 339.321 57.871 339.376 58.19 L 340.157 58.19 L 340.157 49.682 L 339.136 49.682 " fill="#0072bc"/>
<path transform="matrix(1,0,0,-1,-134.1627,447.831)" d="M 343.217 56.379 C 343.329 56.746 343.503 57.064 343.74 57.332 C 343.975 57.6 344.269 57.81 344.621 57.963 C 344.973 58.114 345.372 58.19 345.822 58.19 C 346.189 58.19 346.535 58.136 346.859 58.029 C 347.183 57.92 347.465 57.764 347.704 57.56 C 347.945 57.356 348.135 57.102 348.275 56.799 C 348.415 56.494 348.486 56.142 348.486 55.742 C 348.486 55.367 348.427 55.035 348.311 54.746 C 348.195 54.459 348.04 54.201 347.849 53.972 C 347.658 53.744 347.437 53.539 347.189 53.354 C 346.941 53.17 346.685 52.994 346.421 52.826 C 346.158 52.666 345.893 52.509 345.628 52.352 C 345.365 52.197 345.122 52.03 344.904 51.854 C 344.683 51.678 344.496 51.488 344.339 51.285 C 344.183 51.08 344.081 50.846 344.033 50.582 L 348.402 50.582 L 348.402 49.682 L 342.845 49.682 C 342.885 50.186 342.975 50.617 343.115 50.972 C 343.255 51.328 343.433 51.638 343.649 51.902 C 343.865 52.166 344.109 52.398 344.381 52.598 C 344.653 52.799 344.937 52.986 345.233 53.162 C 345.593 53.386 345.91 53.592 346.181 53.781 C 346.453 53.968 346.679 54.158 346.859 54.35 C 347.038 54.543 347.175 54.75 347.267 54.974 C 347.359 55.199 347.406 55.459 347.406 55.754 C 347.406 55.986 347.361 56.197 347.273 56.385 C 347.185 56.572 347.067 56.734 346.919 56.871 C 346.771 57.006 346.597 57.111 346.397 57.182 C 346.197 57.254 345.985 57.291 345.761 57.291 C 345.464 57.291 345.21 57.228 344.999 57.104 C 344.787 56.98 344.613 56.818 344.477 56.619 C 344.341 56.418 344.244 56.192 344.183 55.94 C 344.122 55.688 344.097 55.434 344.105 55.178 L 343.085 55.178 C 343.061 55.611 343.105 56.01 343.217 56.379 " fill="#0072bc"/>
<path transform="matrix(1,0,0,-1,-134.1627,447.831)" d="M 350.843 52.797 C 350.863 52.4 350.927 52.029 351.035 51.68 C 351.143 51.332 351.317 51.039 351.557 50.799 C 351.796 50.558 352.132 50.438 352.565 50.438 C 352.997 50.438 353.333 50.558 353.574 50.799 C 353.813 51.039 353.987 51.332 354.095 51.68 C 354.203 52.029 354.267 52.4 354.287 52.797 C 354.306 53.192 354.317 53.55 354.317 53.871 C 354.317 54.078 354.315 54.308 354.311 54.56 C 354.306 54.812 354.287 55.064 354.251 55.316 C 354.214 55.568 354.163 55.814 354.095 56.054 C 354.027 56.295 353.927 56.504 353.794 56.684 C 353.663 56.865 353.497 57.01 353.296 57.123 C 353.097 57.234 352.853 57.291 352.565 57.291 C 352.277 57.291 352.033 57.234 351.833 57.123 C 351.632 57.01 351.466 56.865 351.335 56.684 C 351.203 56.504 351.103 56.295 351.035 56.054 C 350.966 55.814 350.915 55.568 350.878 55.316 C 350.843 55.064 350.823 54.812 350.819 54.56 C 350.815 54.308 350.813 54.078 350.813 53.871 C 350.813 53.55 350.823 53.192 350.843 52.797 Z M 349.757 54.83 C 349.773 55.166 349.813 55.494 349.876 55.814 C 349.941 56.135 350.033 56.438 350.153 56.726 C 350.273 57.014 350.437 57.266 350.645 57.482 C 350.853 57.699 351.115 57.871 351.431 57.998 C 351.747 58.127 352.124 58.19 352.565 58.19 C 353.005 58.19 353.382 58.127 353.699 57.998 C 354.015 57.871 354.277 57.699 354.485 57.482 C 354.693 57.266 354.857 57.014 354.977 56.726 C 355.097 56.438 355.189 56.135 355.253 55.814 C 355.317 55.494 355.357 55.166 355.372 54.83 C 355.389 54.494 355.397 54.17 355.397 53.858 C 355.397 53.547 355.389 53.222 355.372 52.886 C 355.357 52.55 355.317 52.222 355.253 51.902 C 355.189 51.582 355.097 51.28 354.977 50.996 C 354.857 50.713 354.693 50.463 354.485 50.246 C 354.277 50.031 354.017 49.86 353.704 49.736 C 353.393 49.613 353.013 49.55 352.565 49.55 C 352.124 49.55 351.747 49.613 351.431 49.736 C 351.115 49.86 350.853 50.031 350.645 50.246 C 350.437 50.463 350.273 50.713 350.153 50.996 C 350.033 51.28 349.941 51.582 349.876 51.902 C 349.813 52.222 349.773 52.55 349.757 52.886 C 349.741 53.222 349.733 53.547 349.733 53.858 C 349.733 54.17 349.741 54.494 349.757 54.83 " fill="#0072bc"/>
<path transform="matrix(1,0,0,-1,-134.1627,447.831)" d="M 361.391 53.684 C 361.315 53.961 361.199 54.207 361.042 54.423 C 360.886 54.638 360.687 54.81 360.443 54.938 C 360.199 55.066 359.912 55.131 359.585 55.131 C 359.241 55.131 358.949 55.062 358.708 54.927 C 358.468 54.791 358.273 54.613 358.121 54.392 C 357.968 54.172 357.859 53.922 357.79 53.642 C 357.722 53.362 357.689 53.078 357.689 52.791 C 357.689 52.486 357.725 52.192 357.796 51.908 C 357.869 51.625 357.983 51.375 358.138 51.158 C 358.294 50.942 358.496 50.768 358.746 50.636 C 358.993 50.504 359.292 50.438 359.645 50.438 C 359.996 50.438 360.29 50.506 360.527 50.642 C 360.763 50.778 360.953 50.959 361.097 51.182 C 361.241 51.406 361.345 51.662 361.409 51.951 C 361.472 52.238 361.505 52.535 361.505 52.838 C 361.505 53.127 361.466 53.408 361.391 53.684 Z M 357.725 55.886 L 357.725 55.047 L 357.749 55.047 C 357.917 55.39 358.181 55.64 358.54 55.797 C 358.901 55.953 359.296 56.031 359.729 56.031 C 360.208 56.031 360.626 55.942 360.983 55.766 C 361.339 55.59 361.634 55.352 361.871 55.053 C 362.107 54.752 362.285 54.406 362.405 54.014 C 362.525 53.623 362.585 53.207 362.585 52.766 C 362.585 52.326 362.527 51.91 362.411 51.518 C 362.294 51.127 362.119 50.785 361.882 50.492 C 361.647 50.201 361.351 49.971 360.996 49.803 C 360.638 49.635 360.224 49.55 359.753 49.55 C 359.601 49.55 359.431 49.566 359.243 49.598 C 359.054 49.631 358.869 49.682 358.685 49.754 C 358.501 49.826 358.327 49.924 358.163 50.049 C 357.999 50.172 357.861 50.326 357.749 50.51 L 357.725 50.51 L 357.725 47.318 L 356.704 47.318 L 356.704 55.886 L 357.725 55.886 " fill="#0072bc"/>
<path transform="matrix(1,0,0,-1,-134.1627,447.831)" d="M 363.292 55.886 L 364.601 55.886 L 366.088 53.715 L 367.636 55.886 L 368.861 55.886 L 366.724 53.031 L 369.124 49.682 L 367.816 49.682 L 366.088 52.25 L 364.361 49.682 L 363.124 49.682 L 365.453 52.947 L 363.292 55.886 " fill="#0072bc"/>
<path transform="matrix(1,0,0,-1,-134.1627,447.831)" d="M 379.193 53.127 L 379.193 52.31 L 376.577 52.31 L 376.577 49.682 L 375.761 49.682 L 375.761 52.31 L 373.145 52.31 L 373.145 53.127 L 375.761 53.127 L 375.761 55.754 L 376.577 55.754 L 376.577 53.127 L 379.193 53.127 " fill="#0072bc"/>
</g>
</g>
</svg>
